<svg xmlns="http://www.w3.org/2000/svg" viewBox="0 0 113.39 113.39"><defs><style>.cls-1{fill:#05d2d2;}.cls-2{fill:none;}</style></defs><g id="Layer_2" data-name="Layer 2"><g id="Layer_1-2" data-name="Layer 1"><path class="cls-1" d="M21.52,58.68a17.61,17.61,0,1,1,0-35.21,2,2,0,0,1,1.95,2V39.12H37.16a2,2,0,0,1,2,2,17.63,17.63,0,0,1-17.6,17.61m9.77,13.69a2,2,0,0,1-1.95,1.95H5.87a2,2,0,0,1-2-1.95V64.54a2,2,0,0,1,2-2H29.34a2,2,0,0,1,1.95,2ZM27.38,17.6a2,2,0,0,1,2-2,17.61,17.61,0,0,1,17.6,17.6,2,2,0,0,1-1.95,2H29.34a2,2,0,0,1-2-2ZM56.72,40.15V29.34a2,2,0,0,1,2-2H66.5a2,2,0,0,1,2,2v7.92c.65,0,1.29-.1,2-.1s1.31.06,2,.1V17.6a2,2,0,0,1,1.95-2h7.83a2,2,0,0,1,1.95,2V40.14a33.5,33.5,0,0,1,9.78,6.74V11.74H0V76.28a2,2,0,0,0,2,2H38.14A33,33,0,0,1,56.72,40.15"/><path class="cls-1" d="M64.54,37.71V31.29H60.63v7.34a35.21,35.21,0,0,1,3.91-.92"/><path class="cls-1" d="M13.33,52a13.68,13.68,0,0,0,21.74-9H22.32Z"/><path class="cls-1" d="M93.88,2a2,2,0,0,0-1.95-2H2A2,2,0,0,0,0,2V7.82H93.88Z"/><path class="cls-1" d="M19.56,27.52a13.67,13.67,0,0,0-9,21.74l9-9Z"/><path class="cls-1" d="M31.29,19.7V31.29h11.6A13.71,13.71,0,0,0,31.29,19.7"/><path class="cls-1" d="M80.19,51.27a21.18,21.18,0,0,0-3.91-1.54V62.59h3.91Z"/><rect class="cls-1" x="7.82" y="66.5" width="19.56" height="3.91"/><path class="cls-1" d="M80.19,38.63V19.56H76.28V37.71a34.69,34.69,0,0,1,3.91.92"/><path class="cls-1" d="M70.41,95.84A25.43,25.43,0,1,1,95.84,70.41,25.43,25.43,0,0,1,70.41,95.84M99.75,70.41A29.34,29.34,0,1,0,70.41,99.75,29.34,29.34,0,0,0,99.75,70.41"/><path class="cls-1" d="M98.71,87.78A33.39,33.39,0,0,1,87.78,98.71l4.15,4.14,10.92-10.92Z"/><path class="cls-1" d="M112,105l-8.33-8.32-7,7L105,112a5,5,0,0,0,7-7"/><path class="cls-1" d="M84.1,53.83v8.76h2a2,2,0,0,1,2,2v7.83a2,2,0,0,1-2,1.95H54.77a2,2,0,0,1-2-1.95V64.54a2,2,0,0,1,2-2h1.95V53.83a21.43,21.43,0,0,0-6.33,24.41h40A21.41,21.41,0,0,0,84.1,53.83"/><path class="cls-1" d="M70.41,91.93a21.52,21.52,0,0,0,18-9.78h-36a21.54,21.54,0,0,0,18,9.78"/><rect class="cls-2" width="113.39" height="113.39"/><rect class="cls-1" x="56.72" y="66.5" width="27.38" height="3.91"/><path class="cls-1" d="M72.37,49c-.65-.05-1.3-.09-2-.09s-1.31,0-2,.09v13.6h3.91Z"/><path class="cls-1" d="M64.54,62.59V49.73a21.18,21.18,0,0,0-3.91,1.54V62.59Z"/></g></g></svg>