<svg xmlns="http://www.w3.org/2000/svg" viewBox="0 0 113.39 113.39"><defs><style>.cls-1{fill:#05d2d2;}</style></defs><g id="Layer_2" data-name="Layer 2"><g id="Layer_1-2" data-name="Layer 1"><path class="cls-1" d="M90.13,79.06a12.74,12.74,0,1,1,12.74-12.73A12.74,12.74,0,0,1,90.13,79.06"/><path class="cls-1" d="M23.25,79.06A12.74,12.74,0,1,1,36,66.33,12.74,12.74,0,0,1,23.25,79.06"/><path class="cls-1" d="M68.44,28.2,55.91,40.72a3.31,3.31,0,0,1-4.7,0L45,34.46a3.32,3.32,0,1,1,4.7-4.7l3.91,3.92L63.74,23.5a3.32,3.32,0,1,1,4.7,4.7M78.84,8.86A11,11,0,0,1,69,2.77l-.47-.93a3.31,3.31,0,0,0-3-1.84H47.83a3.33,3.33,0,0,0-3,1.84l-.46.93a11,11,0,0,1-9.85,6.09,3.32,3.32,0,0,0-3.32,3.32v19A34.39,34.39,0,0,0,55.74,64.08a3.41,3.41,0,0,0,.95.14,3.48,3.48,0,0,0,1-.14A34.39,34.39,0,0,0,82.16,31.14v-19a3.32,3.32,0,0,0-3.32-3.32"/><path class="cls-1" d="M103.72,80.13a19.35,19.35,0,0,1-27.19,0,23.33,23.33,0,0,0-4.9,4.77l1.83,1.6a25.47,25.47,0,0,1,8.7,19.15v7.76h27.9a3.33,3.33,0,0,0,3.33-3.33V99a23.25,23.25,0,0,0-9.67-18.86"/><path class="cls-1" d="M9.67,80.13A23.25,23.25,0,0,0,0,99v11.07a3.33,3.33,0,0,0,3.32,3.33H31.23v-7.76a25.47,25.47,0,0,1,8.7-19.15l1.83-1.6a23.38,23.38,0,0,0-4.91-4.77,19.34,19.34,0,0,1-27.18,0"/><path class="cls-1" d="M69.08,91.48a17.12,17.12,0,0,1-24.77,0,18.77,18.77,0,0,0-6.44,14.15v7.76H75.52v-7.76a18.77,18.77,0,0,0-6.44-14.15"/><path class="cls-1" d="M56.69,90.13A10.52,10.52,0,1,1,67.21,79.61,10.53,10.53,0,0,1,56.69,90.13"/></g></g></svg>