<svg xmlns="http://www.w3.org/2000/svg" viewBox="0 0 110.84 113.39"><defs><style>.cls-1{fill:#05d2d2;}</style></defs><g id="Layer_2" data-name="Layer 2"><g id="Layer_1-2" data-name="Layer 1"><path class="cls-1" d="M40.73,83.87a27.79,27.79,0,0,1,2.82,12.18v17.34H15.84V97.55L4,84.29A15.81,15.81,0,0,1,0,73.18L1.38,35.81a5.5,5.5,0,0,1,10.91-1.06c.72,4.37,1.56,15.87,2,22.25A12,12,0,0,0,13,68.1l3.49,9A3,3,0,1,0,22,74.92l-3.49-9a6.05,6.05,0,0,1,11.08-4.86Z"/><path class="cls-1" d="M110.83,73.18a15.8,15.8,0,0,1-4,11.11L95,97.55v15.84H67.3V96.05a27.79,27.79,0,0,1,2.82-12.18L81.27,61.08a6.18,6.18,0,0,1,8.1-2.78,6.09,6.09,0,0,1,3.06,7.38c-.27.82-3.72,9.63-3.56,9.23a3,3,0,1,0,5.53,2.16l3.49-9A12,12,0,0,0,96.56,57c.43-6.39,1.27-17.89,2-22.26a5.51,5.51,0,0,1,10.92,1.07Z"/><path class="cls-1" d="M55.42,42.13A11.88,11.88,0,1,1,67.3,30.25,11.87,11.87,0,0,1,55.42,42.13M86,23.74,79.39,23a1.16,1.16,0,0,1-1-.78,23.91,23.91,0,0,0-4.55-7.88,1.17,1.17,0,0,1-.19-1.24L76.37,7a1.19,1.19,0,0,0-.5-1.51L66.64.16a1.19,1.19,0,0,0-1.55.33l-4,5.41A1.15,1.15,0,0,1,60,6.35a24.42,24.42,0,0,0-9.1,0,1.16,1.16,0,0,1-1.16-.45L45.76.49A1.19,1.19,0,0,0,44.21.16L35,5.49A1.2,1.2,0,0,0,34.48,7l2.69,6.11A1.18,1.18,0,0,1,37,14.34a24.34,24.34,0,0,0-4.53,7.89,1.17,1.17,0,0,1-1,.78l-6.67.73a1.2,1.2,0,0,0-1.06,1.19V35.59a1.2,1.2,0,0,0,1.06,1.18l6.64.72a1.18,1.18,0,0,1,1,.79A23.74,23.74,0,0,0,37,46.16a1.19,1.19,0,0,1,.19,1.24l-2.69,6.11A1.19,1.19,0,0,0,35,55l9.24,5.33A1.19,1.19,0,0,0,45.76,60l4-5.41a1.19,1.19,0,0,1,1.17-.45,24.16,24.16,0,0,0,9.09,0,1.17,1.17,0,0,1,1.16.45l4,5.39a1.19,1.19,0,0,0,1.55.32L75.87,55a1.18,1.18,0,0,0,.5-1.5L73.68,47.4a1.16,1.16,0,0,1,.19-1.22,24.55,24.55,0,0,0,4.53-7.89,1.16,1.16,0,0,1,1-.79L86,36.77a1.19,1.19,0,0,0,1-1.19V24.93a1.19,1.19,0,0,0-1-1.19"/></g></g></svg>