<svg xmlns="http://www.w3.org/2000/svg" viewBox="0 0 113.54 113.39"><defs><style>.cls-1{fill:#05d2d2;}</style></defs><g id="Layer_2" data-name="Layer 2"><g id="Layer_1-2" data-name="Layer 1"><path class="cls-1" d="M47.18,102.06a5.68,5.68,0,0,0-5.66,5.66v3.78a1.89,1.89,0,0,0,1.88,1.88H81.14A1.89,1.89,0,0,0,83,111.5v-3.78a5.7,5.7,0,0,0-5.67-5.66ZM13.12,94.49H37.74a1.89,1.89,0,1,1,0,3.78H13.22a1.89,1.89,0,1,1-.1-3.78m35.93,0a1.87,1.87,0,0,0-1.87,1.9v1.89H77.36V96.39a1.89,1.89,0,0,0-1.88-1.9ZM28.21,83.15H51a1.89,1.89,0,0,1,0,3.78H28.3a1.89,1.89,0,1,1-.09-3.78m-15.09,0h8.11a1.89,1.89,0,0,1,0,3.78h-8a1.89,1.89,0,1,1-.1-3.78M79,82.87a5.54,5.54,0,0,1-1.37,2.39l-5.43,5.45H75.5a5.71,5.71,0,0,1,5.63,5.69v2.7A9.23,9.23,0,0,1,83,100.25V88ZM13.22,71.81h28.3a1.89,1.89,0,0,1,0,3.78H13.22a1.89,1.89,0,1,1,0-3.78m73.71-1.56-7.34,7.36,19.08,23.85c3.08,3.9,8.92,3.49,12.25.15s3.71-9.15-.16-12.25ZM56.58,62.37a1.85,1.85,0,0,0-1.31.54l-5.65,5.68a1.87,1.87,0,0,0,0,2.66l17,17a1.88,1.88,0,0,0,2.67,0h0l5.65-5.68a1.87,1.87,0,0,0,0-2.66l-17-17a1.9,1.9,0,0,0-1.37-.54m-20.73-1.9H43.4a1.89,1.89,0,0,1,0,3.78H35.85a1.89,1.89,0,0,1,0-3.78m-22.63,0H28.3a1.89,1.89,0,1,1,0,3.78H13.22a1.89,1.89,0,0,1,0-3.78m57.87-7.71-9,9,14,14,9-9Zm-58-3.62H58.5a1.89,1.89,0,1,1,0,3.77H13.22a1.89,1.89,0,0,1-.1-3.77m66.11-9.46a1.91,1.91,0,0,0-1.31.56L72.26,45.9a1.9,1.9,0,0,0,0,2.68h0l17,17a1.89,1.89,0,0,0,2.66,0l5.67-5.66a1.9,1.9,0,0,0,0-2.68h0l-17-17a2,2,0,0,0-1.37-.56M27.74,37.8H66.05a1.89,1.89,0,1,1,0,3.78H27.83a1.89,1.89,0,1,1-.09-3.78m-14.62,0h7.63a1.89,1.89,0,0,1,0,3.78H13.22a1.89,1.89,0,1,1-.1-3.78m0-11.34H69.83a1.89,1.89,0,0,1,0,3.78H13.22a1.89,1.89,0,1,1-.1-3.78M24.05,15.12H54.73a1.89,1.89,0,0,1,0,3.78H24.05a1.89,1.89,0,0,1,0-3.78m43.89-14V13.23a1.83,1.83,0,0,0,1.88,1.88h12.1ZM5.67,0A5.7,5.7,0,0,0,0,5.67v102a5.71,5.71,0,0,0,5.67,5.68H38.11a5.41,5.41,0,0,1-.36-1.88h0v-3.78A9.49,9.49,0,0,1,43.4,99.1V96.4A5.73,5.73,0,0,1,49,90.71H63.69L46.94,73.93h0a5.74,5.74,0,0,1,0-8l5.65-5.68,0,0a5.64,5.64,0,0,1,3.9-1.62,5.56,5.56,0,0,1,2.72.67l9.39-9.39a5.73,5.73,0,0,1,1-6.66l5.65-5.64A5.58,5.58,0,0,1,83,37.39V18.89H69.82a5.69,5.69,0,0,1-5.66-5.67V0Z"/></g></g></svg>