<svg xmlns="http://www.w3.org/2000/svg" viewBox="0 0 708.31 255.35"><defs><style>.cls-1{fill:#1e2dbe;}</style></defs><g id="Layer_2" data-name="Layer 2"><g id="Layer_1-2" data-name="Layer 1"><path class="cls-1" d="M354.33,75.38V29.18h7.92v46.2Z"/><path class="cls-1" d="M390.72,75.38V56q0-7.84-6.27-7.85-6.87,0-6.87,7.72V75.38h-7.72V41.66h7.72v3.16a11,11,0,0,1,8.91-4,11.79,11.79,0,0,1,8.62,3.3c2.22,2.21,3.33,5.7,3.33,10.5V75.38Z"/><path class="cls-1" d="M415.11,76.17q-7.86,0-7.85-8.64V48.39h-5V41.66h5V31.43l7.72-3.7V41.66h7.79v6.73H415V66c0,2.16.94,3.23,2.83,3.23a10.81,10.81,0,0,0,5.29-1.51l-.93,6.93A15.12,15.12,0,0,1,415.11,76.17Z"/><path class="cls-1" d="M441.75,76.17q-7.2,0-11.39-4.71t-4.19-13q0-8.19,4.22-12.91t11.36-4.72a14.55,14.55,0,0,1,10.59,4q4.13,4,4.12,11.81a39,39,0,0,1-.26,4.76H433.83a8.23,8.23,0,0,0,2.47,5.74,7.61,7.61,0,0,0,5.45,2.18,8.46,8.46,0,0,0,7.12-3.5l4.89,5C450.81,74.42,446.81,76.17,441.75,76.17Zm-7.86-21.12h14.92a8.16,8.16,0,0,0-2.25-5.51,6.74,6.74,0,0,0-4.81-1.88,8.15,8.15,0,0,0-5.45,1.82A7.66,7.66,0,0,0,433.89,55.05Z"/><path class="cls-1" d="M461.79,75.38V41.66h7.72v3.49a7.1,7.1,0,0,1,6.93-4.29,9.4,9.4,0,0,1,6.27,2.31l-1.12,7.07a9.66,9.66,0,0,0-5.74-1.79,6.12,6.12,0,0,0-4.49,1.85q-1.85,1.85-1.85,6.21V75.38Z"/><path class="cls-1" d="M507.4,75.38V56q0-7.84-6.27-7.85-6.87,0-6.87,7.72V75.38h-7.72V41.66h7.72v3.16a11,11,0,0,1,8.91-4,11.75,11.75,0,0,1,8.61,3.3c2.23,2.21,3.34,5.7,3.34,10.5V75.38Z"/><path class="cls-1" d="M541.27,75.38v-2.7a11.86,11.86,0,0,1-9,3.49,13,13,0,0,1-8.81-2.93q-3.4-2.94-3.4-8.29T524,56.64a15.32,15.32,0,0,1,9.34-2.84,16.08,16.08,0,0,1,8,1.78V53.8c0-2.15-.54-3.72-1.61-4.69a7.34,7.34,0,0,0-5-1.45,17.21,17.21,0,0,0-10,3.17l-2.37-6.27a25.39,25.39,0,0,1,17.85-3.27A14.18,14.18,0,0,1,544.28,43a8.21,8.21,0,0,1,3.33,4,16.79,16.79,0,0,1,1.19,6.73V75.38Zm-7.52-6a10,10,0,0,0,7.52-3.24V61.79a15.36,15.36,0,0,0-6.73-1.39,10,10,0,0,0-5,1.12A3.72,3.72,0,0,0,527.61,65a3.84,3.84,0,0,0,1.58,3.24A7.53,7.53,0,0,0,533.75,69.38Z"/><path class="cls-1" d="M565.4,76.17q-7.86,0-7.86-8.64V48.39h-5V41.66h5V31.43l7.72-3.7V41.66h7.79v6.73h-7.79V66c0,2.16,1,3.23,2.84,3.23a10.75,10.75,0,0,0,5.28-1.51l-.92,6.93A15.12,15.12,0,0,1,565.4,76.17Z"/><path class="cls-1" d="M585.15,35.68A4.31,4.31,0,0,1,581.92,37a4.63,4.63,0,0,1-4.62-4.62,4.36,4.36,0,0,1,1.35-3.24,4.54,4.54,0,0,1,3.27-1.32,4.52,4.52,0,0,1,4.56,4.56A4.51,4.51,0,0,1,585.15,35.68ZM578,75.38V41.66h7.72V75.38Z"/><path class="cls-1" d="M606.76,76.17q-7.12,0-11.29-4.68t-4.16-12.94q0-8.25,4.16-13t11.29-4.72q7.13,0,11.32,4.72t4.19,13q0,8.25-4.16,12.94T606.76,76.17Zm0-7.39a6.82,6.82,0,0,0,5.71-2.7,12.16,12.16,0,0,0,2.08-7.53A12.44,12.44,0,0,0,612.47,51a6.75,6.75,0,0,0-5.71-2.77A6.67,6.67,0,0,0,601.15,51,12.24,12.24,0,0,0,599,58.55,12.14,12.14,0,0,0,601.11,66,6.71,6.71,0,0,0,606.76,68.78Z"/><path class="cls-1" d="M648.74,75.38V56q0-7.84-6.26-7.85-6.87,0-6.87,7.72V75.38h-7.72V41.66h7.72v3.16a11,11,0,0,1,8.91-4,11.75,11.75,0,0,1,8.61,3.3c2.23,2.21,3.34,5.7,3.34,10.5V75.38Z"/><path class="cls-1" d="M682.62,75.38v-2.7a11.86,11.86,0,0,1-9,3.49,13,13,0,0,1-8.81-2.93q-3.4-2.94-3.4-8.29t3.86-8.31a15.32,15.32,0,0,1,9.34-2.84,16.08,16.08,0,0,1,8,1.78V53.8c0-2.15-.54-3.72-1.61-4.69a7.34,7.34,0,0,0-5-1.45,17.21,17.21,0,0,0-10,3.17l-2.38-6.27a25.41,25.41,0,0,1,17.86-3.27A14.29,14.29,0,0,1,685.63,43a8.21,8.21,0,0,1,3.33,4,16.79,16.79,0,0,1,1.19,6.73V75.38Zm-7.52-6a10,10,0,0,0,7.52-3.24V61.79a15.36,15.36,0,0,0-6.73-1.39,10,10,0,0,0-5,1.12A3.72,3.72,0,0,0,669,65a3.84,3.84,0,0,0,1.58,3.24A7.53,7.53,0,0,0,675.1,69.38Z"/><path class="cls-1" d="M697.12,75.38v-44l7.72-3.63V75.38Z"/><path class="cls-1" d="M354,141.38V95.18h7.92v38.61h22.44v7.59Z"/><path class="cls-1" d="M408.83,141.38v-2.7a11.86,11.86,0,0,1-9,3.49,13,13,0,0,1-8.81-2.93q-3.41-2.94-3.4-8.29t3.86-8.31a15.32,15.32,0,0,1,9.34-2.84,16.08,16.08,0,0,1,8,1.78V119.8c0-2.15-.54-3.72-1.61-4.69a7.34,7.34,0,0,0-5-1.45,17.21,17.21,0,0,0-10,3.17l-2.37-6.27a25.39,25.39,0,0,1,17.85-3.27,14.18,14.18,0,0,1,4.16,1.69,8.16,8.16,0,0,1,3.33,4,16.79,16.79,0,0,1,1.19,6.73v21.71Zm-7.52-6a10,10,0,0,0,7.52-3.24v-4.35a15.36,15.36,0,0,0-6.73-1.39,9.89,9.89,0,0,0-5,1.12,3.71,3.71,0,0,0-1.92,3.43,3.82,3.82,0,0,0,1.59,3.24A7.48,7.48,0,0,0,401.31,135.38Z"/><path class="cls-1" d="M438.36,142.17a9.06,9.06,0,0,1-7.46-3.36v2.57h-7.72V97.23l7.72-3.5v16.43a9.53,9.53,0,0,1,7.59-3.3,12.42,12.42,0,0,1,10.13,4.76q3.87,4.74,3.86,12.87,0,8.45-3.76,13.06A12.59,12.59,0,0,1,438.36,142.17Zm-.92-7.39a6.18,6.18,0,0,0,5.44-2.74c1.26-1.82,1.88-4.34,1.88-7.55s-.64-5.9-1.91-7.66a6.3,6.3,0,0,0-5.41-2.64,7.32,7.32,0,0,0-6.54,3.3v14.06A7.27,7.27,0,0,0,437.44,134.78Z"/><path class="cls-1" d="M472,142.17q-7.12,0-11.29-4.68t-4.15-12.94q0-8.25,4.15-13T472,106.86q7.13,0,11.32,4.72t4.19,13q0,8.25-4.16,12.94T472,142.17Zm0-7.39a6.82,6.82,0,0,0,5.71-2.7,12.16,12.16,0,0,0,2.08-7.53,12.44,12.44,0,0,0-2.08-7.59,7.14,7.14,0,0,0-11.32,0,12.24,12.24,0,0,0-2.11,7.55,12.07,12.07,0,0,0,2.08,7.49A6.68,6.68,0,0,0,472,134.78Z"/><path class="cls-1" d="M513.62,141.38v-3.23a10.62,10.62,0,0,1-8.84,4,11.75,11.75,0,0,1-8.64-3.33q-3.37-3.33-3.37-10.53V107.66h7.72v19.27q0,7.86,6.34,7.85,6.8,0,6.79-7.72v-19.4h7.73v33.72Z"/><path class="cls-1" d="M528.53,141.38V107.66h7.72v3.49a7.1,7.1,0,0,1,6.93-4.29,9.4,9.4,0,0,1,6.27,2.31l-1.12,7.07a9.68,9.68,0,0,0-5.74-1.79,6.12,6.12,0,0,0-4.49,1.85q-1.85,1.85-1.85,6.21v18.87Z"/><path class="cls-1" d="M372.61,208.17a21.1,21.1,0,0,1-7.79-1.38,16.4,16.4,0,0,1-5.77-3.73,21.68,21.68,0,0,1-3.83-5.45,25.38,25.38,0,0,1-2.21-6.43,36.35,36.35,0,0,1,0-13.79,25.45,25.45,0,0,1,2.21-6.44,21.63,21.63,0,0,1,3.83-5.44,16.13,16.13,0,0,1,5.77-3.73,20.9,20.9,0,0,1,7.79-1.39,20.32,20.32,0,0,1,9.41,2.08,16.09,16.09,0,0,1,6.33,5.61,27.21,27.21,0,0,1,3.4,7.62,33.14,33.14,0,0,1,0,17.16,27.4,27.4,0,0,1-3.4,7.63A16.09,16.09,0,0,1,382,206.1,20.44,20.44,0,0,1,372.61,208.17Zm0-7.59a10.38,10.38,0,0,0,5.61-1.51,10.71,10.71,0,0,0,3.8-4,21.14,21.14,0,0,0,2-5.21,23.72,23.72,0,0,0,.66-5.58,24.52,24.52,0,0,0-.66-5.77,20.48,20.48,0,0,0-2-5.18,10.35,10.35,0,0,0-3.76-3.9,10.82,10.82,0,0,0-5.65-1.45,9.91,9.91,0,0,0-7.06,2.67,14.3,14.3,0,0,0-3.93,6.17,25.2,25.2,0,0,0-1.09,7.46,24.64,24.64,0,0,0,.66,5.74,20.64,20.64,0,0,0,2,5.22,10.18,10.18,0,0,0,3.76,3.89A10.71,10.71,0,0,0,372.61,200.58Z"/><path class="cls-1" d="M399.51,207.38V173.66h7.72v3.49a7.1,7.1,0,0,1,6.93-4.29,9.44,9.44,0,0,1,6.27,2.31l-1.12,7.07a9.69,9.69,0,0,0-5.75-1.79,6.11,6.11,0,0,0-4.48,1.85q-1.84,1.84-1.85,6.21v18.87Z"/><path class="cls-1" d="M435.79,220.58l-4.09-6.2c4.61-.31,7.82-1,9.6-2.15a5.69,5.69,0,0,0,2.67-5.18v-1.91a9.86,9.86,0,0,1-7.66,3,12.51,12.51,0,0,1-10.06-4.58q-3.86-4.59-3.86-13.1,0-8.19,3.86-12.91a12.47,12.47,0,0,1,10.13-4.72A10.26,10.26,0,0,1,444,175.7v-2h7.72V204q0,8.37-3.59,12.14T435.79,220.58Zm1.85-19.8a7.11,7.11,0,0,0,6.33-3.3v-14a7.32,7.32,0,0,0-6.33-3.3,6.52,6.52,0,0,0-5.58,2.64q-1.95,2.64-1.95,7.66a12.73,12.73,0,0,0,2,7.52A6.42,6.42,0,0,0,437.64,200.78Z"/><path class="cls-1" d="M478.12,207.38v-2.7a11.9,11.9,0,0,1-9,3.49,13,13,0,0,1-8.81-2.93q-3.4-2.94-3.4-8.29t3.86-8.31a15.37,15.37,0,0,1,9.34-2.84,16.12,16.12,0,0,1,8,1.78V185.8q0-3.24-1.62-4.69a7.33,7.33,0,0,0-5-1.45,17.19,17.19,0,0,0-10,3.17l-2.38-6.27A25.39,25.39,0,0,1,477,173.29a14.08,14.08,0,0,1,4.16,1.69,8.16,8.16,0,0,1,3.33,4,16.59,16.59,0,0,1,1.19,6.73v21.71Zm-7.53-6a10,10,0,0,0,7.53-3.24v-4.35a15.39,15.39,0,0,0-6.73-1.39,9.85,9.85,0,0,0-5,1.12,3.7,3.7,0,0,0-1.91,3.43,3.81,3.81,0,0,0,1.58,3.24A7.5,7.5,0,0,0,470.59,201.38Z"/><path class="cls-1" d="M513.32,207.38V188q0-7.84-6.27-7.85-6.85,0-6.86,7.72v19.47h-7.72V173.66h7.72v3.16a11,11,0,0,1,8.91-4,11.75,11.75,0,0,1,8.61,3.3c2.22,2.21,3.34,5.7,3.34,10.5v20.72Z"/><path class="cls-1" d="M535,167.68a4.32,4.32,0,0,1-3.23,1.36,4.63,4.63,0,0,1-4.62-4.62,4.36,4.36,0,0,1,1.35-3.24,4.51,4.51,0,0,1,3.27-1.32,4.51,4.51,0,0,1,4.55,4.56A4.5,4.5,0,0,1,535,167.68Zm-7.12,39.7V173.66h7.72v33.72Z"/><path class="cls-1" d="M540.61,207.38v-6.2l17.68-20.66H541.93v-6.86h25.93v5.94l-17.62,20.92H567.8v6.86Z"/><path class="cls-1" d="M593.12,207.38v-2.7a11.9,11.9,0,0,1-9,3.49,13,13,0,0,1-8.81-2.93q-3.41-2.94-3.4-8.29t3.86-8.31a15.35,15.35,0,0,1,9.34-2.84,16.15,16.15,0,0,1,8,1.78V185.8q0-3.24-1.62-4.69a7.33,7.33,0,0,0-5-1.45,17.22,17.22,0,0,0-10,3.17l-2.37-6.27A25.39,25.39,0,0,1,592,173.29a14.18,14.18,0,0,1,4.16,1.69,8.16,8.16,0,0,1,3.33,4,16.76,16.76,0,0,1,1.19,6.73v21.71Zm-7.53-6a10,10,0,0,0,7.53-3.24v-4.35a15.4,15.4,0,0,0-6.74-1.39,9.79,9.79,0,0,0-5,1.12,3.71,3.71,0,0,0-1.92,3.43,3.82,3.82,0,0,0,1.59,3.24A7.48,7.48,0,0,0,585.59,201.38Z"/><path class="cls-1" d="M617.24,208.17q-7.86,0-7.86-8.64V180.39h-5v-6.73h5V163.43l7.73-3.7v13.93h7.78v6.73h-7.78V198c0,2.16.94,3.23,2.83,3.23a10.75,10.75,0,0,0,5.28-1.51l-.92,6.93A15.12,15.12,0,0,1,617.24,208.17Z"/><path class="cls-1" d="M637,167.68a4.33,4.33,0,0,1-3.24,1.36,4.64,4.64,0,0,1-4.62-4.62,4.33,4.33,0,0,1,1.36-3.24,4.5,4.5,0,0,1,3.26-1.32,4.51,4.51,0,0,1,4.56,4.56A4.5,4.5,0,0,1,637,167.68Zm-7.13,39.7V173.66h7.72v33.72Z"/><path class="cls-1" d="M658.6,208.17q-7.12,0-11.29-4.68t-4.15-12.94q0-8.25,4.15-13t11.29-4.72q7.13,0,11.32,4.72t4.19,13q0,8.25-4.16,12.94T658.6,208.17Zm0-7.39a6.82,6.82,0,0,0,5.71-2.7,12.16,12.16,0,0,0,2.08-7.53,12.44,12.44,0,0,0-2.08-7.59A7.14,7.14,0,0,0,653,183a12.24,12.24,0,0,0-2.11,7.55A12.07,12.07,0,0,0,653,198,6.68,6.68,0,0,0,658.6,200.78Z"/><path class="cls-1" d="M700.59,207.38V188q0-7.84-6.27-7.85-6.87,0-6.87,7.72v19.47h-7.72V173.66h7.72v3.16a11,11,0,0,1,8.91-4,11.79,11.79,0,0,1,8.62,3.3c2.22,2.21,3.33,5.7,3.33,10.5v20.72Z"/><path class="cls-1" d="M71,67.55c-1.26,2.18-1.74,3.14-1.74,3.14a4.4,4.4,0,0,1-5.38,2.09L60.18,71.4a3.89,3.89,0,0,0-5,2.25l-2.77,7.27a3.9,3.9,0,0,0,2.25,5l3.65,1.39A4.52,4.52,0,0,1,61,92.49l-1.6,8a4.51,4.51,0,0,1-4.49,3.71L51,104a3.9,3.9,0,0,0-4,3.76l-.26,7.77a3.9,3.9,0,0,0,3.76,4l3.93.13a4.54,4.54,0,0,1,4.25,4l1.07,8a4.5,4.5,0,0,1-3,5l-3.79,1.16a3.92,3.92,0,0,0-2.58,4.86l3.41,11.18,21-6.49A85,85,0,0,1,142,31L137.11,9.52l-11.38,2.64a3.9,3.9,0,0,0-2.92,4.66l.89,3.86a4.53,4.53,0,0,1-2.79,5.12l-7.48,3.08a4.54,4.54,0,0,1-5.59-1.68l-2.08-3.34a3.9,3.9,0,0,0-5.36-1.24l-6.61,4.11a3.91,3.91,0,0,0-1.24,5.36l2.06,3.31a4.53,4.53,0,0,1-1,5.75l-6.08,5.36a4.55,4.55,0,0,1-5.84.23l-3-2.46a3.89,3.89,0,0,0-5.47.56l-4.92,6a3.9,3.9,0,0,0,.56,5.47l3,2.47a4.41,4.41,0,0,1,.87,5.71S72.21,65.37,71,67.55Z"/><path class="cls-1" d="M152,208c2.52,0,3.59-.06,3.59-.06a4.41,4.41,0,0,1,4.51,3.61l.62,3.86a3.9,3.9,0,0,0,4.46,3.22l7.68-1.24a3.9,3.9,0,0,0,3.23-4.46l-.63-3.85a4.53,4.53,0,0,1,3.12-4.93l7.68-2.59a4.51,4.51,0,0,1,5.46,2l1.84,3.45a3.91,3.91,0,0,0,5.27,1.6l6.86-3.67a3.89,3.89,0,0,0,1.6-5.26l-1.85-3.47a4.54,4.54,0,0,1,1.35-5.68l6.4-4.94a4.52,4.52,0,0,1,5.83.15l2.9,2.69a3.9,3.9,0,0,0,5.5-.19l8-8.54L219.25,164.8a85,85,0,0,1-134.48,0L68.65,179.73l8,8.54a3.91,3.91,0,0,0,5.51.19L85,185.77a4.52,4.52,0,0,1,5.83-.15l6.4,4.94a4.54,4.54,0,0,1,1.35,5.68l-1.85,3.47a3.9,3.9,0,0,0,1.6,5.27l6.86,3.66a3.89,3.89,0,0,0,5.26-1.6l1.84-3.45a4.53,4.53,0,0,1,5.47-2l7.68,2.59a4.53,4.53,0,0,1,3.11,4.94l-.62,3.85a3.9,3.9,0,0,0,3.23,4.46l7.67,1.24a3.91,3.91,0,0,0,4.47-3.23l.62-3.85a4.41,4.41,0,0,1,4.51-3.61S149.47,208,152,208Z"/><path class="cls-1" d="M233.11,67.6c-1.25-2.17-1.85-3.07-1.85-3.07a4.42,4.42,0,0,1,.88-5.71l3-2.47a3.9,3.9,0,0,0,.56-5.47l-4.91-6a3.9,3.9,0,0,0-5.48-.56l-3,2.46a4.55,4.55,0,0,1-5.84-.23l-6.08-5.36a4.53,4.53,0,0,1-1-5.75l2.07-3.32a3.9,3.9,0,0,0-1.25-5.36l-6.6-4.11a3.91,3.91,0,0,0-5.37,1.25l-2.07,3.34a4.54,4.54,0,0,1-5.59,1.67l-7.49-3.07a4.54,4.54,0,0,1-2.78-5.13l.89-3.85a3.91,3.91,0,0,0-2.92-4.67L166.93,9.53,162.06,31a85,85,0,0,1,67.23,116.47l21,6.49,3.42-11.17a3.92,3.92,0,0,0-2.59-4.87l-3.78-1.15a4.52,4.52,0,0,1-3-5l1.07-8a4.55,4.55,0,0,1,4.25-4l3.93-.13a3.9,3.9,0,0,0,3.76-4l-.25-7.77a3.9,3.9,0,0,0-4-3.76l-3.91.13a4.52,4.52,0,0,1-4.49-3.72L243,92.51a4.54,4.54,0,0,1,2.72-5.17L249.39,86a3.91,3.91,0,0,0,2.26-5l-2.77-7.27a3.9,3.9,0,0,0-5-2.25l-3.65,1.39a4.42,4.42,0,0,1-5.38-2.1S234.37,69.78,233.11,67.6Z"/><path class="cls-1" d="M30.37,65.77l-.08.17Z"/><path class="cls-1" d="M63.84,21.68l.29.36a26.87,26.87,0,0,1,7.91-4C93.21,12.11,92.15,4.79,101.1.44L100.83,0a14.55,14.55,0,0,1-7.46,2.21C68.53,2.52,70.42,17,63.84,21.68Z"/><path class="cls-1" d="M39.15,49.25l.46.29c5-5.59,9.88-6.63,10.7-6.87C70,36.83,76.9,23.8,82.23,20.09l-.2-.3c-7.28,5.17-16-.07-30.7,15.69-.09.1-.5-.47-.5-.47,12-14.45,12.27-24.26,17.81-29.63l-.3-.27C33.44,25.92,48.76,37.32,39.15,49.25Z"/><path class="cls-1" d="M40.6,25.1C7.69,57.7,28.17,66,23,82.26l.33.15c3-6.88,10.59-9.9,10.79-10C48.08,66,52.46,49.77,58,44.82l-.28-.26c-6.81,7.4-18,3.25-27.16,21.54,0,.06-.62-.29-.61-.31,7.38-15.94,3.93-30.35,11-40.28A2.65,2.65,0,0,0,40.6,25.1Z"/><path class="cls-1" d="M16.7,125.55l.48,0c-.12-1.85-.62-9.63,7.14-16.81C40,94.3,37.29,81.43,43.7,71.5l-.49-.27C38.23,79.71,20,89,19.28,102a2.61,2.61,0,0,1-.69-.1c2.65-18.69-7.22-31.13-1.83-43a3.16,3.16,0,0,0-.48-.27C-4.59,101.6,12.74,101,16.7,125.55Z"/><path class="cls-1" d="M24.74,166.34l.52-.18c-4.32-9.7,2.9-22.95,3.22-23.59,9.5-18.4,6.32-35,8.49-40.86l-.45-.13c-5.07,12.63-19.14,19.5-17,40.73a2,2,0,0,1-.69,0C16.66,129.14,1.73,116.5,2.21,102.12l-.25,0C-7.34,153.17,19.18,152.83,24.74,166.34Z"/><path class="cls-1" d="M46,204.15l.35-.28a28.3,28.3,0,0,1-6-23.33c4.41-25.48-3.84-30.06-4-41.6h-.43c-.37,12.9-13.58,27.41-1.59,45.45l-.58.37C20.5,165.48,10,170.19,3.84,151h0a1.27,1.27,0,0,0-.55.15C12.57,207.33,37.55,190.34,46,204.15Z"/><path class="cls-1" d="M97.54,228.65l-.11-.52c-17.4,3.49-26.29.15-29.45-15.85-4.43-22.46-19.7-31.13-21.49-40.11h0a1,1,0,0,0-.43.07h0c3.28,15.85-4.45,25.29,14.68,44.28l-.52.45c-18.41-14.6-31-9.22-38.37-19.37a1.47,1.47,0,0,0-.31.33C44.33,235.82,68.79,237.88,97.54,228.65Z"/><path class="cls-1" d="M54.55,235.16l.14-.19c23.41,13.65,47.87-5.38,77.51-6.06,7.44-.17,29.67,1.17,50.08,24.89l-5.42,1.55c-6.74-11.71-17.15-20.18-26.58-22.54-27-6.74-27.49,18.4-57.44,18.79C70.62,251.89,55.42,236.05,54.55,235.16Z"/><path class="cls-1" d="M273.34,65.77l.09.17Z"/><path class="cls-1" d="M273.34,65.77l.09.17Z"/><path class="cls-1" d="M30.37,65.77l-.08.17Z"/><path class="cls-1" d="M273.34,65.77l.09.17Z"/><path class="cls-1" d="M239.87,21.68l-.29.36a26.87,26.87,0,0,0-7.91-4C210.5,12.11,211.56,4.79,202.61.44l.27-.44a14.55,14.55,0,0,0,7.46,2.21C235.18,2.52,233.3,17,239.87,21.68Z"/><path class="cls-1" d="M264.56,49.25l-.45.29c-5-5.59-9.89-6.63-10.7-6.87-19.72-5.84-26.59-18.87-31.92-22.58l.19-.3c7.28,5.17,15.95-.07,30.7,15.69.09.1.5-.47.5-.47-12-14.45-12.26-24.26-17.8-29.63l.29-.27C270.28,25.92,255,37.32,264.56,49.25Z"/><path class="cls-1" d="M263.11,25.1C296,57.7,275.54,66,280.69,82.26l-.32.15c-3-6.88-10.6-9.9-10.8-10-13.94-6.42-18.31-22.65-23.89-27.6l.28-.26c6.81,7.4,18,3.25,27.16,21.54,0,.06.62-.29.61-.31-7.38-15.94-3.92-30.35-11-40.28A3.41,3.41,0,0,1,263.11,25.1Z"/><path class="cls-1" d="M287,125.55l-.49,0c.12-1.85.62-9.63-7.14-16.81C263.76,94.3,266.42,81.43,260,71.5l.48-.27c5,8.48,23.17,17.75,23.94,30.79a2.74,2.74,0,0,0,.69-.1c-2.66-18.69,7.21-31.13,1.82-43a3.16,3.16,0,0,1,.48-.27C308.31,101.6,291,101,287,125.55Z"/><path class="cls-1" d="M279,166.34l-.51-.18c4.31-9.7-2.9-22.95-3.23-23.59-9.49-18.4-6.32-35-8.48-40.86l.45-.13c5.06,12.63,19.13,19.5,16.94,40.73a2,2,0,0,0,.69,0c2.22-13.17,17.15-25.81,16.67-40.19l.25,0C311.05,153.17,284.53,152.83,279,166.34Z"/><path class="cls-1" d="M257.72,204.15l-.35-.28a28.36,28.36,0,0,0,6-23.33c-4.42-25.48,3.83-30.06,4-41.6h.43c.37,12.9,13.58,27.41,1.59,45.45l.58.37c13.21-19.28,23.68-14.57,29.86-33.74h0a1.27,1.27,0,0,1,.55.15C291.14,207.33,266.16,190.34,257.72,204.15Z"/><path class="cls-1" d="M206.17,228.65l.12-.52c17.39,3.49,26.28.15,29.44-15.85,4.43-22.46,19.71-31.13,21.49-40.11h0a1.1,1.1,0,0,1,.43.07h0c-3.27,15.85,4.45,25.29-14.68,44.28l.52.45c18.41-14.6,31.06-9.22,38.37-19.37a1.27,1.27,0,0,1,.31.33C259.39,235.82,234.93,237.88,206.17,228.65Z"/><path class="cls-1" d="M249.16,235.16,249,235c-23.41,13.65-47.87-5.38-77.51-6.06-7.43-.17-29.67,1.17-50.08,24.89l5.42,1.55c6.75-11.71,17.15-20.18,26.58-22.54,27-6.74,27.49,18.4,57.44,18.79C233.09,251.89,248.29,236.05,249.16,235.16Z"/><path class="cls-1" d="M30.37,65.77l-.08.17Z"/><path class="cls-1" d="M30.37,65.77l-.08.17Z"/><path class="cls-1" d="M273.34,65.77l.09.17Z"/><path class="cls-1" d="M188.28,66.49h-.41c-10.93,0-21.46,7.05-26.68,18.77-2.66,6-3.27,13.74-3.28,21.21s.62,15.23,3.28,21.19c5.22,11.74,15.75,19.76,26.68,19.76h.41c10.94,0,21.46-8,26.69-19.76,2.65-6,3.26-13.72,3.28-21.19s-.63-15.24-3.28-21.21C209.74,73.54,199.22,66.49,188.28,66.49Zm16.83,40.45c0,7-.18,13.07-.18,13.07-.45,5.74-.53,11.5-3.2,15.42a15.29,15.29,0,0,1-12.67,6.78l-.19.06h-.62l-.18-.06a15.33,15.33,0,0,1-12.69-6.78c-2.65-3.92-2.75-9.68-3.19-15.42,0,0-.17-6-.18-12.94v-.32c0-7,.18-13.07.18-13.07.44-5.74.53-11.5,3.19-15.42a15.3,15.3,0,0,1,12.68-6.78l.18-.06h.62l.18.06a15.3,15.3,0,0,1,12.69,6.78c2.66,3.92,2.75,9.68,3.2,15.42,0,0,.16,6,.18,12.94Z"/><path class="cls-1" d="M196.48,150.77s-2.15,5.57-6.13,9c-2.19,1.88-5.43,2.37-8,2.67l-26.92,1.34h-5.95s-4.51-.26-4.75-4.45V65c.24-4.19,4.75-4.44,4.75-4.44h5.95v-5.5h-36v5.5h6s4.51.25,4.76,4.44v94.32c-.25,4.19-4.76,4.45-4.76,4.45h-6v5.49h36l39,.15L199.19,152v-.63Z"/><path class="cls-1" d="M111.9,76.86c.21-3.5,4-3.71,4-3.71h5V68.57h-30v4.58h5s3.76.21,4,3.71v60.3c-.21,3.5-4,3.72-4,3.72h-5v4.58h30v-4.58h-5s-3.76-.22-4-3.72Z"/></g></g></svg>