<svg id="Layer_1" data-name="Layer 1" xmlns="http://www.w3.org/2000/svg" viewBox="0 0 1183.78 255.35"><defs><style>.cls-1{fill:#1e2dbe;}</style></defs><path class="cls-1" d="M407.24,223.14v-46.2h7.92v46.2Z" transform="translate(-52.91 -147.76)"/><path class="cls-1" d="M443.62,223.14V203.8q0-7.86-6.27-7.85-6.87,0-6.86,7.72v19.47h-7.72V189.41h7.72v3.17a11,11,0,0,1,8.91-4,11.71,11.71,0,0,1,8.61,3.3q3.33,3.3,3.33,10.49v20.73Z" transform="translate(-52.91 -147.76)"/><path class="cls-1" d="M468,223.93q-7.85,0-7.85-8.65V196.14h-5v-6.73h5V179.18l7.72-3.69v13.92h7.79v6.73h-7.79v17.63q0,3.22,2.84,3.23a10.76,10.76,0,0,0,5.28-1.52l-.92,6.93A15.14,15.14,0,0,1,468,223.93Z" transform="translate(-52.91 -147.76)"/><path class="cls-1" d="M494.65,223.93q-7.18,0-11.38-4.72t-4.19-13q0-8.18,4.22-12.9t11.35-4.72a14.51,14.51,0,0,1,10.59,4q4.13,4,4.13,11.81a38.78,38.78,0,0,1-.26,4.75H486.73a8.22,8.22,0,0,0,2.48,5.74,7.55,7.55,0,0,0,5.44,2.18,8.45,8.45,0,0,0,7.13-3.5l4.88,5Q502.23,223.93,494.65,223.93Zm-7.85-21.12h14.91a8.06,8.06,0,0,0-2.24-5.51,6.76,6.76,0,0,0-4.82-1.88,8.12,8.12,0,0,0-5.44,1.81A7.63,7.63,0,0,0,486.8,202.81Z" transform="translate(-52.91 -147.76)"/><path class="cls-1" d="M514.7,223.14V189.41h7.72v3.5a7.1,7.1,0,0,1,6.93-4.29,9.39,9.39,0,0,1,6.27,2.31L534.5,198a9.68,9.68,0,0,0-5.75-1.78,6.14,6.14,0,0,0-4.49,1.85q-1.85,1.84-1.84,6.2v18.88Z" transform="translate(-52.91 -147.76)"/><path class="cls-1" d="M560.3,223.14V203.8q0-7.86-6.27-7.85-6.87,0-6.86,7.72v19.47h-7.72V189.41h7.72v3.17a11,11,0,0,1,8.91-4,11.71,11.71,0,0,1,8.61,3.3q3.33,3.3,3.33,10.49v20.73Z" transform="translate(-52.91 -147.76)"/><path class="cls-1" d="M594.18,223.14v-2.71a11.91,11.91,0,0,1-9,3.5,13,13,0,0,1-8.81-2.94c-2.27-2-3.4-4.72-3.4-8.28s1.29-6.42,3.86-8.32a15.36,15.36,0,0,1,9.34-2.83,16.12,16.12,0,0,1,8,1.78v-1.78q0-3.24-1.62-4.69a7.28,7.28,0,0,0-5-1.45,17.12,17.12,0,0,0-10,3.17l-2.38-6.27a23,23,0,0,1,13.2-3.7,22.17,22.17,0,0,1,4.65.43,14.31,14.31,0,0,1,4.16,1.68,8.25,8.25,0,0,1,3.33,4,16.65,16.65,0,0,1,1.19,6.73v21.72Zm-7.53-6a10.07,10.07,0,0,0,7.53-3.23v-4.36a15.53,15.53,0,0,0-6.73-1.38,9.85,9.85,0,0,0-5,1.12,3.7,3.7,0,0,0-1.91,3.43,3.81,3.81,0,0,0,1.58,3.23A7.43,7.43,0,0,0,586.65,217.13Z" transform="translate(-52.91 -147.76)"/><path class="cls-1" d="M618.3,223.93q-7.86,0-7.85-8.65V196.14h-5v-6.73h5V179.18l7.72-3.69v13.92H626v6.73h-7.79v17.63q0,3.22,2.84,3.23a10.82,10.82,0,0,0,5.28-1.52l-.93,6.93A15.09,15.09,0,0,1,618.3,223.93Z" transform="translate(-52.91 -147.76)"/><path class="cls-1" d="M638.06,183.44a4.35,4.35,0,0,1-3.23,1.35,4.61,4.61,0,0,1-4.62-4.62,4.35,4.35,0,0,1,1.35-3.23,4.51,4.51,0,0,1,3.27-1.32,4.51,4.51,0,0,1,4.55,4.55A4.51,4.51,0,0,1,638.06,183.44Zm-7.13,39.7V189.41h7.73v33.73Z" transform="translate(-52.91 -147.76)"/><path class="cls-1" d="M659.66,223.93q-7.12,0-11.28-4.69t-4.16-12.93q0-8.25,4.16-13t11.28-4.72q7.14,0,11.32,4.72t4.19,13q0,8.25-4.16,12.93T659.66,223.93Zm0-7.39a6.79,6.79,0,0,0,5.71-2.71q2.08-2.7,2.08-7.52a12.37,12.37,0,0,0-2.08-7.59,7.14,7.14,0,0,0-11.32,0,12.27,12.27,0,0,0-2.11,7.56A12.09,12.09,0,0,0,654,213.8,6.71,6.71,0,0,0,659.66,216.54Z" transform="translate(-52.91 -147.76)"/><path class="cls-1" d="M701.65,223.14V203.8q0-7.86-6.27-7.85-6.87,0-6.86,7.72v19.47h-7.73V189.41h7.73v3.17a11,11,0,0,1,8.91-4,11.71,11.71,0,0,1,8.61,3.3q3.33,3.3,3.33,10.49v20.73Z" transform="translate(-52.91 -147.76)"/><path class="cls-1" d="M735.53,223.14v-2.71a11.91,11.91,0,0,1-9,3.5,13,13,0,0,1-8.81-2.94c-2.27-2-3.4-4.72-3.4-8.28s1.29-6.42,3.86-8.32a15.36,15.36,0,0,1,9.34-2.83,16.12,16.12,0,0,1,8,1.78v-1.78q0-3.24-1.62-4.69a7.28,7.28,0,0,0-5-1.45,17.12,17.12,0,0,0-10,3.17l-2.38-6.27a23,23,0,0,1,13.2-3.7,22.17,22.17,0,0,1,4.65.43,14.42,14.42,0,0,1,4.16,1.68,8.25,8.25,0,0,1,3.33,4,16.65,16.65,0,0,1,1.19,6.73v21.72Zm-7.53-6a10.07,10.07,0,0,0,7.53-3.23v-4.36a15.53,15.53,0,0,0-6.73-1.38,9.85,9.85,0,0,0-5,1.12,3.7,3.7,0,0,0-1.91,3.43,3.81,3.81,0,0,0,1.58,3.23A7.43,7.43,0,0,0,728,217.13Z" transform="translate(-52.91 -147.76)"/><path class="cls-1" d="M750,223.14v-44l7.72-3.63v47.65Z" transform="translate(-52.91 -147.76)"/><path class="cls-1" d="M406.91,289.14v-46.2h7.92v38.61h22.44v7.59Z" transform="translate(-52.91 -147.76)"/><path class="cls-1" d="M461.74,289.14v-2.71a11.89,11.89,0,0,1-9,3.5A13,13,0,0,1,444,287c-2.26-1.95-3.4-4.72-3.4-8.28s1.29-6.42,3.86-8.32a15.36,15.36,0,0,1,9.34-2.83,16.12,16.12,0,0,1,8,1.78v-1.78q0-3.24-1.62-4.69a7.28,7.28,0,0,0-5-1.45,17.12,17.12,0,0,0-10,3.17l-2.38-6.27a23,23,0,0,1,13.2-3.7,22.17,22.17,0,0,1,4.65.43,14.31,14.31,0,0,1,4.16,1.68,8.32,8.32,0,0,1,3.34,4,16.83,16.83,0,0,1,1.18,6.73v21.72Zm-7.53-6a10.07,10.07,0,0,0,7.53-3.23v-4.36a15.53,15.53,0,0,0-6.73-1.38,9.85,9.85,0,0,0-5,1.12,3.7,3.7,0,0,0-1.91,3.43,3.83,3.83,0,0,0,1.58,3.23A7.45,7.45,0,0,0,454.21,283.13Z" transform="translate(-52.91 -147.76)"/><path class="cls-1" d="M491.27,289.93a9,9,0,0,1-7.46-3.37v2.58h-7.72V245l7.72-3.49v16.43a9.5,9.5,0,0,1,7.59-3.3,12.41,12.41,0,0,1,10.13,4.75q3.86,4.75,3.86,12.87,0,8.46-3.76,13.07A12.63,12.63,0,0,1,491.27,289.93Zm-.93-7.39a6.2,6.2,0,0,0,5.45-2.74,13.25,13.25,0,0,0,1.88-7.56q0-5-1.92-7.65a6.28,6.28,0,0,0-5.41-2.64,7.3,7.3,0,0,0-6.53,3.3V279.3A7.24,7.24,0,0,0,490.34,282.54Z" transform="translate(-52.91 -147.76)"/><path class="cls-1" d="M524.93,289.93q-7.14,0-11.29-4.69t-4.16-12.93q0-8.25,4.16-13t11.29-4.72q7.13,0,11.32,4.72t4.19,13q0,8.25-4.16,12.93T524.93,289.93Zm0-7.39a6.78,6.78,0,0,0,5.7-2.71q2.08-2.7,2.08-7.52a12.37,12.37,0,0,0-2.08-7.59,6.73,6.73,0,0,0-5.7-2.77,6.65,6.65,0,0,0-5.61,2.8,14.53,14.53,0,0,0,0,15.05A6.71,6.71,0,0,0,524.93,282.54Z" transform="translate(-52.91 -147.76)"/><path class="cls-1" d="M566.53,289.14V285.9a10.6,10.6,0,0,1-8.84,4A11.79,11.79,0,0,1,549,286.6q-3.36-3.33-3.37-10.53V255.41h7.73v19.27q0,7.86,6.33,7.86,6.79,0,6.8-7.72V255.41h7.72v33.73Z" transform="translate(-52.91 -147.76)"/><path class="cls-1" d="M581.43,289.14V255.41h7.73v3.5a7.09,7.09,0,0,1,6.92-4.29,9.4,9.4,0,0,1,6.28,2.31L601.23,264a9.63,9.63,0,0,0-5.74-1.78,6.12,6.12,0,0,0-4.49,1.85q-1.85,1.85-1.84,6.2v18.88Z" transform="translate(-52.91 -147.76)"/><path class="cls-1" d="M425.52,355.93a20.86,20.86,0,0,1-7.79-1.39,16,16,0,0,1-5.77-3.73,21.38,21.38,0,0,1-3.83-5.44,25.06,25.06,0,0,1-2.21-6.44,36.35,36.35,0,0,1,0-13.79,25,25,0,0,1,2.21-6.43,21.43,21.43,0,0,1,3.83-5.45,16.31,16.31,0,0,1,5.77-3.73,21.06,21.06,0,0,1,7.79-1.38,20.4,20.4,0,0,1,9.4,2.07,16.12,16.12,0,0,1,6.34,5.61,27.4,27.4,0,0,1,3.4,7.63,33.42,33.42,0,0,1,0,17.16,27.21,27.21,0,0,1-3.4,7.62,16,16,0,0,1-6.34,5.61A20.28,20.28,0,0,1,425.52,355.93Zm0-7.59a10.43,10.43,0,0,0,5.61-1.52,10.59,10.59,0,0,0,3.79-4,20.92,20.92,0,0,0,2-5.21,23.79,23.79,0,0,0,.66-5.58,24.61,24.61,0,0,0-.66-5.78,20.42,20.42,0,0,0-2-5.18,10.32,10.32,0,0,0-3.76-3.89,10.69,10.69,0,0,0-5.64-1.45,9.89,9.89,0,0,0-7.06,2.67,14.15,14.15,0,0,0-3.93,6.17,25.73,25.73,0,0,0-.43,13.2,20.4,20.4,0,0,0,2,5.21,10.38,10.38,0,0,0,3.77,3.9A10.66,10.66,0,0,0,425.52,348.34Z" transform="translate(-52.91 -147.76)"/><path class="cls-1" d="M452.41,355.14V321.41h7.72v3.5a7.11,7.11,0,0,1,6.93-4.29,9.35,9.35,0,0,1,6.27,2.31L472.21,330a9.63,9.63,0,0,0-5.74-1.78,6.12,6.12,0,0,0-4.49,1.85q-1.85,1.85-1.85,6.2v18.88Z" transform="translate(-52.91 -147.76)"/><path class="cls-1" d="M488.69,368.34l-4.09-6.21c4.62-.3,7.82-1,9.6-2.14a5.68,5.68,0,0,0,2.68-5.18v-1.92a9.83,9.83,0,0,1-7.66,3,12.51,12.51,0,0,1-10.06-4.59q-3.87-4.57-3.87-13.1,0-8.17,3.87-12.9a12.44,12.44,0,0,1,10.13-4.72,10.28,10.28,0,0,1,7.59,2.84v-2h7.72v30.36q0,8.39-3.6,12.15T488.69,368.34Zm1.85-19.8a7.14,7.14,0,0,0,6.34-3.3v-14a7.34,7.34,0,0,0-6.34-3.3,6.52,6.52,0,0,0-5.58,2.64q-1.93,2.64-1.94,7.65a12.74,12.74,0,0,0,2,7.53A6.44,6.44,0,0,0,490.54,348.54Z" transform="translate(-52.91 -147.76)"/><path class="cls-1" d="M531,355.14v-2.71a11.87,11.87,0,0,1-9,3.5,13,13,0,0,1-8.81-2.94c-2.27-1.95-3.4-4.72-3.4-8.28s1.28-6.42,3.86-8.32a15.34,15.34,0,0,1,9.34-2.83,16.08,16.08,0,0,1,8,1.78v-1.78q0-3.24-1.61-4.69a7.29,7.29,0,0,0-5-1.45,17.14,17.14,0,0,0-10,3.17L512,324.32a23,23,0,0,1,13.2-3.7,22.17,22.17,0,0,1,4.65.43,14.42,14.42,0,0,1,4.16,1.68,8.25,8.25,0,0,1,3.33,4,16.82,16.82,0,0,1,1.19,6.73v21.72Zm-7.52-6A10,10,0,0,0,531,345.9v-4.36a15.5,15.5,0,0,0-6.73-1.38,9.79,9.79,0,0,0-5,1.12,3.71,3.71,0,0,0-1.92,3.43,3.82,3.82,0,0,0,1.59,3.23A7.41,7.41,0,0,0,523.5,349.13Z" transform="translate(-52.91 -147.76)"/><path class="cls-1" d="M566.23,355.14V335.8q0-7.86-6.27-7.85-6.87,0-6.87,7.72v19.47h-7.72V321.41h7.72v3.17a11,11,0,0,1,8.91-4,11.73,11.73,0,0,1,8.62,3.3q3.33,3.3,3.33,10.49v20.73Z" transform="translate(-52.91 -147.76)"/><path class="cls-1" d="M587.93,315.44a4.35,4.35,0,0,1-3.23,1.35,4.61,4.61,0,0,1-4.62-4.62,4.35,4.35,0,0,1,1.35-3.23,4.51,4.51,0,0,1,3.27-1.32,4.51,4.51,0,0,1,4.55,4.55A4.51,4.51,0,0,1,587.93,315.44Zm-7.13,39.7V321.41h7.72v33.73Z" transform="translate(-52.91 -147.76)"/><path class="cls-1" d="M593.51,355.14v-6.21l17.69-20.65H594.83v-6.87h25.94v5.94l-17.62,20.92H620.7v6.87Z" transform="translate(-52.91 -147.76)"/><path class="cls-1" d="M646,355.14v-2.71a11.89,11.89,0,0,1-9,3.5,13,13,0,0,1-8.81-2.94c-2.26-1.95-3.4-4.72-3.4-8.28s1.29-6.42,3.87-8.32a15.32,15.32,0,0,1,9.34-2.83,16.08,16.08,0,0,1,8,1.78v-1.78q0-3.24-1.62-4.69t-5-1.45a17.12,17.12,0,0,0-10,3.17L627,324.32a23,23,0,0,1,13.2-3.7,22.34,22.34,0,0,1,4.66.43,14.37,14.37,0,0,1,4.15,1.68,8.26,8.26,0,0,1,3.34,4,16.83,16.83,0,0,1,1.18,6.73v21.72Zm-7.52-6A10.06,10.06,0,0,0,646,345.9v-4.36a15.53,15.53,0,0,0-6.73-1.38,9.85,9.85,0,0,0-5,1.12,3.72,3.72,0,0,0-1.91,3.43,3.83,3.83,0,0,0,1.58,3.23A7.46,7.46,0,0,0,638.5,349.13Z" transform="translate(-52.91 -147.76)"/><path class="cls-1" d="M670.14,355.93q-7.85,0-7.85-8.65V328.14h-5v-6.73h5V311.18l7.72-3.69v13.92h7.79v6.73H670v17.63q0,3.23,2.84,3.23a10.76,10.76,0,0,0,5.28-1.52l-.92,6.93A15.14,15.14,0,0,1,670.14,355.93Z" transform="translate(-52.91 -147.76)"/><path class="cls-1" d="M689.9,315.44a4.33,4.33,0,0,1-3.23,1.35,4.61,4.61,0,0,1-4.62-4.62,4.35,4.35,0,0,1,1.35-3.23,4.51,4.51,0,0,1,3.27-1.32,4.51,4.51,0,0,1,4.55,4.55A4.51,4.51,0,0,1,689.9,315.44Zm-7.12,39.7V321.41h7.72v33.73Z" transform="translate(-52.91 -147.76)"/><path class="cls-1" d="M711.51,355.93q-7.14,0-11.29-4.69t-4.16-12.93q0-8.25,4.16-13t11.29-4.72q7.13,0,11.32,4.72t4.19,13q0,8.25-4.16,12.93T711.51,355.93Zm0-7.39a6.78,6.78,0,0,0,5.7-2.71q2.09-2.7,2.08-7.52a12.37,12.37,0,0,0-2.08-7.59,6.73,6.73,0,0,0-5.7-2.77,6.65,6.65,0,0,0-5.61,2.8,14.53,14.53,0,0,0,0,15.05A6.74,6.74,0,0,0,711.51,348.54Z" transform="translate(-52.91 -147.76)"/><path class="cls-1" d="M753.49,355.14V335.8q0-7.86-6.27-7.85-6.86,0-6.86,7.72v19.47h-7.72V321.41h7.72v3.17a11,11,0,0,1,8.91-4,11.71,11.71,0,0,1,8.61,3.3q3.33,3.3,3.34,10.49v20.73Z" transform="translate(-52.91 -147.76)"/><path class="cls-1" d="M123.86,215.3c-1.26,2.18-1.74,3.15-1.74,3.15a4.43,4.43,0,0,1-5.39,2.09l-3.65-1.39a3.9,3.9,0,0,0-5,2.25l-2.76,7.27a3.9,3.9,0,0,0,2.25,5l3.64,1.38a4.54,4.54,0,0,1,2.72,5.17l-1.6,7.94a4.52,4.52,0,0,1-4.49,3.72l-3.91-.13a3.9,3.9,0,0,0-4,3.76l-.26,7.77a3.9,3.9,0,0,0,3.76,4l3.93.14a4.54,4.54,0,0,1,4.25,4l1.08,8a4.53,4.53,0,0,1-3.05,5l-3.78,1.16a3.89,3.89,0,0,0-2.58,4.86l3.41,11.17,21-6.49a85,85,0,0,1,67.25-116.45L190,157.28l-11.39,2.63a3.91,3.91,0,0,0-2.92,4.67l.89,3.86a4.53,4.53,0,0,1-2.78,5.12l-7.49,3.07a4.54,4.54,0,0,1-5.59-1.67l-2.07-3.34a3.91,3.91,0,0,0-5.37-1.25l-6.6,4.11a3.9,3.9,0,0,0-1.25,5.36l2.07,3.32a4.53,4.53,0,0,1-1,5.75l-6.08,5.35a4.53,4.53,0,0,1-5.83.23l-3-2.46a3.91,3.91,0,0,0-5.48.56l-4.91,6a3.91,3.91,0,0,0,.56,5.48l3,2.46a4.41,4.41,0,0,1,.88,5.71S125.11,213.13,123.86,215.3Z" transform="translate(-52.91 -147.76)"/><path class="cls-1" d="M204.89,355.77c2.51,0,3.59-.07,3.59-.07a4.43,4.43,0,0,1,4.51,3.62l.62,3.85a3.9,3.9,0,0,0,4.46,3.23l7.68-1.24a3.91,3.91,0,0,0,3.22-4.47l-.62-3.84a4.54,4.54,0,0,1,3.12-4.94l7.68-2.59a4.53,4.53,0,0,1,5.46,2l1.84,3.45a3.9,3.9,0,0,0,5.27,1.6l6.86-3.66a3.9,3.9,0,0,0,1.6-5.27L258.33,344a4.55,4.55,0,0,1,1.34-5.69l6.41-4.94a4.52,4.52,0,0,1,5.83.15l2.89,2.7a3.91,3.91,0,0,0,5.5-.19l8-8.54-16.12-14.94a85,85,0,0,1-134.48,0l-16.12,14.93,8,8.55a3.91,3.91,0,0,0,5.5.19l2.9-2.7a4.54,4.54,0,0,1,5.83-.15l6.4,4.95A4.53,4.53,0,0,1,151.5,344l-1.85,3.47a3.9,3.9,0,0,0,1.6,5.26l6.86,3.67a3.92,3.92,0,0,0,5.27-1.6l1.84-3.45a4.53,4.53,0,0,1,5.47-2l7.68,2.59a4.54,4.54,0,0,1,3.11,4.93l-.62,3.85a3.9,3.9,0,0,0,3.22,4.46l7.68,1.24a3.89,3.89,0,0,0,4.46-3.22l.62-3.85a4.43,4.43,0,0,1,4.51-3.62S202.37,355.77,204.89,355.77Z" transform="translate(-52.91 -147.76)"/><path class="cls-1" d="M286,215.36c-1.26-2.18-1.85-3.08-1.85-3.08a4.41,4.41,0,0,1,.88-5.71l3-2.46a3.91,3.91,0,0,0,.56-5.48l-4.91-6a3.91,3.91,0,0,0-5.48-.56l-3,2.46a4.53,4.53,0,0,1-5.83-.23l-6.08-5.35a4.53,4.53,0,0,1-1-5.75l2.06-3.32a3.9,3.9,0,0,0-1.25-5.36l-6.6-4.11a3.91,3.91,0,0,0-5.36,1.24L249.11,175a4.54,4.54,0,0,1-5.59,1.68L236,173.56a4.53,4.53,0,0,1-2.79-5.12l.89-3.86a3.9,3.9,0,0,0-2.92-4.66l-11.38-2.64L215,178.71A85,85,0,0,1,282.2,295.17l21,6.5,3.41-11.18a3.9,3.9,0,0,0-2.58-4.86l-3.79-1.16a4.53,4.53,0,0,1-3-5l1.08-8a4.54,4.54,0,0,1,4.25-4l3.93-.13a3.9,3.9,0,0,0,3.76-4l-.26-7.77a3.91,3.91,0,0,0-4-3.77l-3.9.13a4.52,4.52,0,0,1-4.49-3.71l-1.6-8a4.52,4.52,0,0,1,2.71-5.16l3.65-1.39a3.9,3.9,0,0,0,2.25-5l-2.76-7.27a3.92,3.92,0,0,0-5-2.26l-3.64,1.39a4.43,4.43,0,0,1-5.39-2.09S287.28,217.54,286,215.36Z" transform="translate(-52.91 -147.76)"/><path class="cls-1" d="M83.28,213.52l-.09.17Z" transform="translate(-52.91 -147.76)"/><path class="cls-1" d="M116.74,169.43l.3.36a27.43,27.43,0,0,1,7.9-4c21.18-5.95,20.12-13.27,29.07-17.62l-.27-.43a14.47,14.47,0,0,1-7.46,2.2C121.44,150.28,123.32,164.77,116.74,169.43Z" transform="translate(-52.91 -147.76)"/><path class="cls-1" d="M92.06,197l.45.3c5-5.59,9.89-6.64,10.7-6.88,19.71-5.83,26.59-18.87,31.92-22.58l-.2-.3c-7.27,5.17-15.94-.06-30.69,15.7-.09.09-.5-.47-.5-.47,12-14.45,12.26-24.27,17.8-29.64l-.29-.26C86.34,173.67,101.66,185.07,92.06,197Z" transform="translate(-52.91 -147.76)"/><path class="cls-1" d="M93.5,172.86C60.6,205.46,81.08,213.8,75.93,230l.32.14c3-6.88,10.6-9.89,10.8-10,13.93-6.43,18.31-22.66,23.89-27.6l-.28-.26c-6.81,7.39-18,3.24-27.16,21.53,0,.06-.63-.29-.62-.31,7.39-15.93,3.93-30.35,11-40.27A1.93,1.93,0,0,0,93.5,172.86Z" transform="translate(-52.91 -147.76)"/><path class="cls-1" d="M69.6,273.3l.49,0c-.12-1.86-.62-9.64,7.13-16.81,15.64-14.46,13-27.34,19.38-37.27l-.48-.27c-5,8.49-23.17,17.76-23.94,30.8a2.76,2.76,0,0,1-.69-.11c2.66-18.68-7.21-31.13-1.83-43a2.75,2.75,0,0,0-.48-.27C48.31,249.35,65.65,248.75,69.6,273.3Z" transform="translate(-52.91 -147.76)"/><path class="cls-1" d="M77.65,314.1l.51-.18c-4.32-9.71,2.9-22.95,3.23-23.59,9.49-18.41,6.32-35.06,8.48-40.87l-.45-.12c-5.06,12.63-19.13,19.49-17,40.73a1.94,1.94,0,0,1-.68,0c-2.22-13.17-17.15-25.81-16.67-40.19a1.18,1.18,0,0,0-.26,0C45.57,300.93,72.09,300.59,77.65,314.1Z" transform="translate(-52.91 -147.76)"/><path class="cls-1" d="M98.9,351.91l.35-.29a28.36,28.36,0,0,1-6-23.33c4.41-25.47-3.83-30.06-4-41.59h-.43c-.37,12.89-13.58,27.4-1.59,45.44l-.58.37C73.4,313.24,62.92,318,56.75,298.77h0a1.27,1.27,0,0,0-.55.16C65.48,355.08,90.45,338.09,98.9,351.91Z" transform="translate(-52.91 -147.76)"/><path class="cls-1" d="M150.44,376.4l-.11-.52c-17.39,3.49-26.28.15-29.44-15.85-4.43-22.46-19.71-31.12-21.49-40.1h0a.93.93,0,0,0-.43.07h0c3.28,15.85-4.44,25.29,14.69,44.27l-.52.45c-18.41-14.6-31.06-9.22-38.37-19.36a1.26,1.26,0,0,0-.31.32C97.23,383.58,121.69,385.64,150.44,376.4Z" transform="translate(-52.91 -147.76)"/><path class="cls-1" d="M107.45,382.92l.15-.2c23.4,13.65,47.87-5.38,77.51-6.06,7.43-.17,29.67,1.18,50.07,24.9l-5.41,1.55c-6.75-11.72-17.15-20.18-26.58-22.54-27-6.74-27.49,18.4-57.44,18.79C123.53,399.65,108.33,383.8,107.45,382.92Z" transform="translate(-52.91 -147.76)"/><path class="cls-1" d="M326.25,213.52l.08.17A1.47,1.47,0,0,1,326.25,213.52Z" transform="translate(-52.91 -147.76)"/><path class="cls-1" d="M326.25,213.52l.08.17A1.47,1.47,0,0,1,326.25,213.52Z" transform="translate(-52.91 -147.76)"/><path class="cls-1" d="M83.28,213.52l-.09.17Z" transform="translate(-52.91 -147.76)"/><path class="cls-1" d="M326.25,213.52l.08.17A1.47,1.47,0,0,1,326.25,213.52Z" transform="translate(-52.91 -147.76)"/><path class="cls-1" d="M292.78,169.43l-.29.36a27.39,27.39,0,0,0-7.91-4c-21.17-5.95-20.11-13.27-29.07-17.62l.28-.43a14.47,14.47,0,0,0,7.46,2.2C288.09,150.28,286.2,164.77,292.78,169.43Z" transform="translate(-52.91 -147.76)"/><path class="cls-1" d="M317.47,197l-.46.3c-5-5.59-9.88-6.64-10.7-6.88-19.71-5.83-26.59-18.87-31.92-22.58l.2-.3c7.28,5.17,15.94-.06,30.7,15.7.09.09.5-.47.5-.47-12-14.45-12.27-24.27-17.81-29.64l.29-.26C323.18,173.67,307.86,185.07,317.47,197Z" transform="translate(-52.91 -147.76)"/><path class="cls-1" d="M316,172.86c32.91,32.6,12.42,40.94,17.58,57.16l-.33.14c-3-6.88-10.6-9.89-10.79-10-13.94-6.43-18.32-22.66-23.89-27.6l.28-.26c6.8,7.39,18.05,3.24,27.16,21.53,0,.06.62-.29.61-.31-7.39-15.93-3.93-30.35-10.95-40.27A1.94,1.94,0,0,1,316,172.86Z" transform="translate(-52.91 -147.76)"/><path class="cls-1" d="M339.92,273.3l-.48,0c.12-1.86.62-9.64-7.14-16.81-15.63-14.46-13-27.34-19.38-37.27l.49-.27c5,8.49,23.17,17.76,23.93,30.8a2.69,2.69,0,0,0,.69-.11c-2.65-18.68,7.22-31.13,1.83-43a3.16,3.16,0,0,1,.48-.27C361.21,249.35,343.87,248.75,339.92,273.3Z" transform="translate(-52.91 -147.76)"/><path class="cls-1" d="M331.87,314.1l-.51-.18c4.32-9.71-2.9-22.95-3.22-23.59-9.5-18.41-6.32-35.06-8.49-40.87l.45-.12c5.07,12.63,19.14,19.49,16.95,40.73a2,2,0,0,0,.69,0c2.21-13.17,17.15-25.81,16.67-40.19a1.06,1.06,0,0,1,.25,0C364,300.93,337.44,300.59,331.87,314.1Z" transform="translate(-52.91 -147.76)"/><path class="cls-1" d="M310.63,351.91l-.36-.29a28.28,28.28,0,0,0,6-23.33c-4.41-25.47,3.84-30.06,4-41.59h.43c.38,12.89,13.58,27.4,1.6,45.44l.57.37c13.21-19.27,23.69-14.56,29.87-33.74h0a1.27,1.27,0,0,1,.55.16C344.05,355.08,319.07,338.09,310.63,351.91Z" transform="translate(-52.91 -147.76)"/><path class="cls-1" d="M259.08,376.4l.11-.52c17.4,3.49,26.29.15,29.44-15.85,4.44-22.46,19.71-31.12,21.5-40.1h0a.86.86,0,0,1,.43.07h0c-3.28,15.85,4.45,25.29-14.68,44.27l.52.45c18.41-14.6,31.05-9.22,38.37-19.36a1.76,1.76,0,0,1,.31.32C312.29,383.58,287.83,385.64,259.08,376.4Z" transform="translate(-52.91 -147.76)"/><path class="cls-1" d="M302.07,382.92l-.14-.2c-23.41,13.65-47.87-5.38-77.51-6.06-7.44-.17-29.67,1.18-50.08,24.9l5.42,1.55c6.74-11.72,17.14-20.18,26.58-22.54,27-6.74,27.49,18.4,57.43,18.79C286,399.65,301.2,383.8,302.07,382.92Z" transform="translate(-52.91 -147.76)"/><path class="cls-1" d="M83.28,213.52l-.09.17Z" transform="translate(-52.91 -147.76)"/><path class="cls-1" d="M83.28,213.52l-.09.17Z" transform="translate(-52.91 -147.76)"/><path class="cls-1" d="M326.25,213.52l.08.17A1.47,1.47,0,0,1,326.25,213.52Z" transform="translate(-52.91 -147.76)"/><path class="cls-1" d="M241.19,214.25h-.41c-10.94,0-21.46,7.05-26.69,18.77-2.66,6-3.27,13.73-3.27,21.21s.61,15.23,3.27,21.19c5.23,11.73,15.75,19.75,26.69,19.75h.41c10.93,0,21.46-8,26.68-19.75,2.66-6,3.27-13.73,3.28-21.19S270.53,239,267.87,233C262.65,221.3,252.12,214.25,241.19,214.25ZM258,254.7c0,7-.19,13.07-.19,13.07-.44,5.74-.53,11.5-3.19,15.42A15.29,15.29,0,0,1,242,290l-.19.07h-.61L241,290a15.29,15.29,0,0,1-12.68-6.77c-2.66-3.92-2.76-9.68-3.2-15.42,0,0-.17-6-.18-12.95v-.31c0-7,.18-13.08.18-13.08.44-5.74.54-11.49,3.2-15.42A15.28,15.28,0,0,1,241,219.24l.18-.06h.62l.18.06A15.28,15.28,0,0,1,254.63,226c2.67,3.93,2.76,9.68,3.2,15.42,0,0,.17,6,.19,12.95Z" transform="translate(-52.91 -147.76)"/><path class="cls-1" d="M249.38,298.52s-2.14,5.57-6.13,9c-2.18,1.89-5.43,2.38-8,2.68l-26.92,1.33h-5.94s-4.51-.25-4.76-4.45V212.76c.25-4.19,4.76-4.45,4.76-4.45h5.94v-5.49h-36v5.49h5.95s4.51.26,4.75,4.45v94.31c-.24,4.2-4.75,4.45-4.75,4.45h-5.95V317h36l39,.15,4.79-17.4v-.62Z" transform="translate(-52.91 -147.76)"/><path class="cls-1" d="M164.81,224.62c.2-3.5,4-3.71,4-3.71h5v-4.59h-30v4.59h5s3.76.21,4,3.71v60.3c-.2,3.5-4,3.71-4,3.71h-5v4.59h30v-4.59h-5s-3.77-.21-4-3.71Z" transform="translate(-52.91 -147.76)"/><rect class="cls-1" x="757.3" y="29.18" width="3.96" height="191.4"/><path class="cls-1" d="M887.1,253.94a22,22,0,0,1-12.91-3.79,20.32,20.32,0,0,1-7.68-10.33l8.66-3.2a14.81,14.81,0,0,0,4.91,6.12,12.2,12.2,0,0,0,7.33,2.3,10.93,10.93,0,0,0,6.83-1.95,6.65,6.65,0,0,0,2.53-5.61,5.67,5.67,0,0,0-.7-2.77,8.86,8.86,0,0,0-1.6-2.15,10.43,10.43,0,0,0-2.69-1.71c-1.2-.57-2.21-1-3-1.37s-2-.76-3.67-1.28q-3.12-1.09-4.79-1.72a33,33,0,0,1-4.29-2.07,15.53,15.53,0,0,1-4-2.92,14.19,14.19,0,0,1-3.47-9.36,13.3,13.3,0,0,1,4.83-10.45q4.85-4.22,13.11-4.22a19.1,19.1,0,0,1,11.39,3.24,15.71,15.71,0,0,1,6.08,8.46L895.53,212q-2.5-5.61-9.68-5.61a9.47,9.47,0,0,0-5.73,1.52,5,5,0,0,0-2.07,4.33,4.51,4.51,0,0,0,1.6,3.35,11.19,11.19,0,0,0,3.43,2.22c1.23.5,3,1.13,5.43,1.91,1.56.58,2.74,1,3.55,1.29s1.93.77,3.39,1.44a27.93,27.93,0,0,1,3.43,1.84,25.7,25.7,0,0,1,2.85,2.22,11.57,11.57,0,0,1,2.45,2.92,17.87,17.87,0,0,1,1.49,3.59,15.72,15.72,0,0,1,.62,4.49q0,7.64-5.42,12.05T887.1,253.94Z" transform="translate(-52.91 -147.76)"/><path class="cls-1" d="M932.34,253.94q-8.42,0-13.34-5.54t-4.91-15.29q0-9.75,4.91-15.33t13.34-5.57q8.43,0,13.38,5.57t4.95,15.33q0,9.75-4.91,15.29T932.34,253.94Zm0-8.74a8.06,8.06,0,0,0,6.75-3.2q2.46-3.19,2.46-8.89t-2.46-9a8,8,0,0,0-6.75-3.28,7.9,7.9,0,0,0-6.63,3.32q-2.49,3.31-2.49,8.93c0,3.74.82,6.7,2.45,8.85A7.93,7.93,0,0,0,932.34,245.2Z" transform="translate(-52.91 -147.76)"/><path class="cls-1" d="M976.25,253.94q-8.19,0-13-5.54t-4.8-15.29q0-9.75,4.8-15.33t13-5.57q12.33,0,15.84,11l-8.66,2.89q-1.95-5.15-6.86-5.15a7.51,7.51,0,0,0-6.48,3.28c-1.56,2.18-2.34,5.15-2.34,8.89s.77,6.62,2.3,8.77a7.23,7.23,0,0,0,6.2,3.24c3.7,0,6.11-1.92,7.26-5.77l8.73,2.65Q988.82,253.94,976.25,253.94Z" transform="translate(-52.91 -147.76)"/><path class="cls-1" d="M1010.5,206.08a5.13,5.13,0,0,1-3.83,1.6,5.46,5.46,0,0,1-5.46-5.46,5.15,5.15,0,0,1,1.6-3.82,5.35,5.35,0,0,1,3.86-1.56,5.33,5.33,0,0,1,5.39,5.38A5.31,5.31,0,0,1,1010.5,206.08ZM1002.07,253V213.14h9.13V253Z" transform="translate(-52.91 -147.76)"/><path class="cls-1" d="M1045.67,253v-3.2a14,14,0,0,1-10.6,4.14,15.34,15.34,0,0,1-10.42-3.48q-4-3.47-4-9.78,0-6.48,4.57-9.83a18.09,18.09,0,0,1,11-3.36,19.07,19.07,0,0,1,9.43,2.11v-2.11c0-2.54-.63-4.39-1.91-5.53s-3.23-1.72-5.89-1.72A20.35,20.35,0,0,0,1026,224l-2.81-7.41a30.19,30.19,0,0,1,21.1-3.86,16.74,16.74,0,0,1,4.91,2,9.76,9.76,0,0,1,3.94,4.68,19.76,19.76,0,0,1,1.41,8V253Zm-8.89-7.1a11.85,11.85,0,0,0,8.89-3.82v-5.15a18.3,18.3,0,0,0-8-1.64,11.68,11.68,0,0,0-5.93,1.33,4.38,4.38,0,0,0-2.26,4.06,4.52,4.52,0,0,0,1.87,3.82A8.89,8.89,0,0,0,1036.78,245.9Z" transform="translate(-52.91 -147.76)"/><path class="cls-1" d="M1065.88,253V201l9.12-4.29V253Z" transform="translate(-52.91 -147.76)"/><path class="cls-1" d="M869.63,346.6V292h22.7q9.43,0,13.88,4.91a17.94,17.94,0,0,1-.19,23.87q-4.65,5.14-13.69,5.15H879V346.6ZM892.8,317q4.13,0,6.16-2.42a8.59,8.59,0,0,0,2-5.69,8.88,8.88,0,0,0-1.91-5.58q-1.92-2.46-6.28-2.46H879V317Z" transform="translate(-52.91 -147.76)"/><path class="cls-1" d="M918.46,346.6V306.74h9.12v4.14a8.39,8.39,0,0,1,8.19-5.07,11.06,11.06,0,0,1,7.41,2.73l-1.32,8.34a11.46,11.46,0,0,0-6.79-2.1,7.18,7.18,0,0,0-5.3,2.18q-2.19,2.19-2.19,7.33V346.6Z" transform="translate(-52.91 -147.76)"/><path class="cls-1" d="M966,347.54q-8.43,0-13.34-5.54t-4.91-15.29q0-9.75,4.91-15.33T966,305.81q8.41,0,13.38,5.57t4.95,15.33q0,9.75-4.92,15.29T966,347.54Zm0-8.74a8.06,8.06,0,0,0,6.75-3.2q2.44-3.19,2.45-8.89t-2.45-9a8,8,0,0,0-6.75-3.28,7.89,7.89,0,0,0-6.63,3.32q-2.51,3.32-2.5,8.93c0,3.74.82,6.7,2.46,8.85A7.93,7.93,0,0,0,966,338.8Z" transform="translate(-52.91 -147.76)"/><path class="cls-1" d="M1005.5,347.54q-9.27,0-9.28-10.22V314.7h-5.93v-8h5.93V294.65l9.13-4.37v16.46h9.2v8h-9.2v20.82q0,3.83,3.35,3.83a12.68,12.68,0,0,0,6.24-1.8l-1.09,8.19A17.79,17.79,0,0,1,1005.5,347.54Z" transform="translate(-52.91 -147.76)"/><path class="cls-1" d="M1039.75,347.54q-8.51,0-13.46-5.58t-4.95-15.33q0-9.67,5-15.25t13.42-5.57a17.16,17.16,0,0,1,12.51,4.75q4.88,4.77,4.88,14a44,44,0,0,1-.31,5.61h-26.44a9.75,9.75,0,0,0,2.92,6.79,9,9,0,0,0,6.44,2.57,10,10,0,0,0,8.42-4.13l5.77,5.93Q1048.72,347.54,1039.75,347.54Zm-9.29-25h17.63a9.6,9.6,0,0,0-2.65-6.52,8,8,0,0,0-5.69-2.22,9.61,9.61,0,0,0-6.44,2.14C1031.62,317.42,1030.67,319.61,1030.46,322.58Z" transform="translate(-52.91 -147.76)"/><path class="cls-1" d="M1082.33,347.54q-8.19,0-13-5.54t-4.8-15.29q0-9.75,4.8-15.33t13-5.57q12.33,0,15.84,11l-8.66,2.89q-2-5.15-6.87-5.15a7.51,7.51,0,0,0-6.47,3.28c-1.56,2.18-2.34,5.15-2.34,8.89s.77,6.62,2.3,8.77a7.23,7.23,0,0,0,6.2,3.24q5.54,0,7.26-5.77l8.73,2.65Q1094.89,347.54,1082.33,347.54Z" transform="translate(-52.91 -147.76)"/><path class="cls-1" d="M1119.15,347.54q-9.29,0-9.28-10.22V314.7h-5.93v-8h5.93V294.65l9.12-4.37v16.46h9.21v8H1119v20.82q0,3.83,3.36,3.83a12.73,12.73,0,0,0,6.24-1.8l-1.1,8.19A17.75,17.75,0,0,1,1119.15,347.54Z" transform="translate(-52.91 -147.76)"/><path class="cls-1" d="M1146.06,299.68a5.13,5.13,0,0,1-3.83,1.6,5.46,5.46,0,0,1-5.46-5.46,5.15,5.15,0,0,1,1.6-3.82,5.35,5.35,0,0,1,3.86-1.56,5.33,5.33,0,0,1,5.39,5.38A5.31,5.31,0,0,1,1146.06,299.68Zm-8.43,46.92V306.74h9.13V346.6Z" transform="translate(-52.91 -147.76)"/><path class="cls-1" d="M1174.84,347.54q-8.43,0-13.34-5.54t-4.91-15.29q0-9.75,4.91-15.33t13.34-5.57q8.42,0,13.37,5.57t5,15.33q0,9.75-4.92,15.29T1174.84,347.54Zm0-8.74a8,8,0,0,0,6.74-3.2q2.46-3.19,2.46-8.89t-2.46-9a8.42,8.42,0,0,0-13.37,0q-2.51,3.32-2.5,8.93c0,3.74.82,6.7,2.46,8.85A7.93,7.93,0,0,0,1174.84,338.8Z" transform="translate(-52.91 -147.76)"/><path class="cls-1" d="M1227.56,346.6V323.75q0-9.28-7.41-9.29-8.1,0-8.11,9.13v23h-9.12V306.74H1212v3.75a13,13,0,0,1,10.53-4.68,13.86,13.86,0,0,1,10.18,3.9q3.95,3.9,3.94,12.4V346.6Z" transform="translate(-52.91 -147.76)"/></svg>