<svg xmlns="http://www.w3.org/2000/svg" xmlns:xlink="http://www.w3.org/1999/xlink" viewBox="0 0 51.02 48.97"><defs><style>.cls-1{fill:none;}.cls-2{clip-path:url(#clip-path);}.cls-3{fill:#2fb8c5;}.cls-4{fill:#f9b000;}.cls-5{fill:#e24c1a;}.cls-6{fill:#6a4731;}.cls-7{fill:#6b3d2c;}.cls-8{fill:#a863a5;}.cls-9{fill:#a74a24;}.cls-10{fill:#534731;}.cls-11{fill:#a13027;}.cls-12{fill:#543530;}.cls-13{fill:#a02c22;}.cls-14{fill:#54332d;}.cls-15{fill:#006891;}.cls-16{fill:#00687b;}.cls-17{fill:#155337;}.cls-18{fill:#2e3630;}.cls-19{fill:#2c3932;}.cls-20{fill:#2e3a32;}.cls-21{fill:#253d64;}.cls-22{fill:#303332;}.cls-23{fill:#303331;}.cls-24{fill:#30322f;}</style><clipPath id="clip-path" transform="translate(0 0)"><rect class="cls-1" width="51.02" height="48.97"/></clipPath></defs><g id="Layer_2" data-name="Layer 2"><g id="Layer_1-2" data-name="Layer 1"><g class="cls-2"><path class="cls-3" d="M25.51,21.81,21,20.33V4.54a4.54,4.54,0,1,1,9.08,0V20.33l-4.54,1.48" transform="translate(0 0)"/><path class="cls-4" d="M38.47,49a4.55,4.55,0,0,1-3.68-1.87L25.51,34.32l2.81-3.87L32.86,29l9.29,12.79A4.55,4.55,0,0,1,38.47,49" transform="translate(0 0)"/><path class="cls-5" d="M18.16,29l-15-4.87a4.55,4.55,0,0,1,1.4-8.87A4.34,4.34,0,0,1,6,15.46l15,4.87v4.78L18.16,29" transform="translate(0 0)"/><path class="cls-6" d="M21,25.11V20.33l4.54,1.48-1.3.42a3.92,3.92,0,0,0-.6.23,4.42,4.42,0,0,0-.76.44h0a4.87,4.87,0,0,0-.68.6,4.78,4.78,0,0,0-.39.5L21,25.11" transform="translate(0 0)"/><path class="cls-7" d="M23.61,22.46a3.92,3.92,0,0,1,.6-.23l-.05,0a4.48,4.48,0,0,0-.55.21M21.78,24a4.78,4.78,0,0,1,.39-.5,3.94,3.94,0,0,0-.36.45l0,.05" transform="translate(0 0)"/><path class="cls-8" d="M12.55,49a4.54,4.54,0,0,1-3.67-7.21L18.16,29l4.54,1.48,2.81,3.87L16.23,47.1A4.55,4.55,0,0,1,12.55,49" transform="translate(0 0)"/><path class="cls-9" d="M25.51,34.31,22.7,30.45l1.31.42a4.43,4.43,0,0,0,.65.18,4.71,4.71,0,0,0,.85.08h0a4.8,4.8,0,0,0,.85-.08,3.69,3.69,0,0,0,.65-.18l1.31-.42-2.81,3.86" transform="translate(0 0)"/><path class="cls-10" d="M24.66,31.05a4.43,4.43,0,0,1-.65-.18l.06,0a4,4,0,0,0,.59.16m1.7,0a4,4,0,0,0,.59-.16l.06,0a3.69,3.69,0,0,1-.65.18" transform="translate(0 0)"/><path class="cls-11" d="M22.7,30.45,18.16,29,21,25.11v1.37a3.65,3.65,0,0,0,0,.66,4.48,4.48,0,0,0,.2.88,4.86,4.86,0,0,0,.34.77,5.21,5.21,0,0,0,.36.55l.8,1.11" transform="translate(0 0)"/><path class="cls-12" d="M22.85,22.9a4.74,4.74,0,0,1,.75-.44l-.13.06a4.9,4.9,0,0,0-.62.38m0,0h0M21,26.48V25.11l.8-1.11a4.86,4.86,0,0,0-.57,1.14A4.65,4.65,0,0,0,21,26.48m.57,2.31A4.09,4.09,0,0,1,21.2,28a5.44,5.44,0,0,0,.28.66l.06.11" transform="translate(0 0)"/><path class="cls-13" d="M21.2,28a4.48,4.48,0,0,1-.2-.88c0,.05,0,.09,0,.14a4.21,4.21,0,0,0,.18.74M24,30.87l-1.31-.42-.8-1.11a4.65,4.65,0,0,0,1,.93,4.4,4.4,0,0,0,1.16.6m1.5.26h0a4.14,4.14,0,0,0,.7-.06l.15,0a4.8,4.8,0,0,1-.85.08" transform="translate(0 0)"/><path class="cls-14" d="M23.47,22.52l.14-.06a4.48,4.48,0,0,1,.55-.21h-.05a4.51,4.51,0,0,0-.64.26M21.2,25.14A4.54,4.54,0,0,1,21.78,24l0-.05a4.62,4.62,0,0,0-.61,1.19m.28,3.54A5.44,5.44,0,0,1,21.2,28a4.21,4.21,0,0,1-.18-.74,4.57,4.57,0,0,0,.17.71,5.28,5.28,0,0,0,.29.69m2.59,2.21-.06,0a4.4,4.4,0,0,1-1.16-.6,4.83,4.83,0,0,0,1.22.62m2.14.18a3.4,3.4,0,0,0,.7-.17h0a4,4,0,0,1-.59.16l-.15,0" transform="translate(0 0)"/><path class="cls-15" d="M32.86,29l-2.81-3.86V20.33l15-4.87a4.24,4.24,0,0,1,1.4-.23,4.55,4.55,0,0,1,1.4,8.87L32.86,29" transform="translate(0 0)"/><path class="cls-16" d="M30.05,25.11,29.25,24a4,4,0,0,0-.41-.51,4.52,4.52,0,0,0-.61-.55,4.64,4.64,0,0,0-.83-.49,4.58,4.58,0,0,0-.58-.22l-1.31-.42,4.54-1.48v4.78" transform="translate(0 0)"/><path class="cls-17" d="M28.32,30.45l.81-1.11c.12-.17.24-.35.35-.53a5.74,5.74,0,0,0,.36-.84,4,4,0,0,0,.18-.83,3.65,3.65,0,0,0,0-.66V25.11L32.86,29l-4.54,1.48" transform="translate(0 0)"/><path class="cls-17" d="M28.23,22.94a4.29,4.29,0,0,0-.68-.42l-.15-.07a4.64,4.64,0,0,1,.83.49m1.82,3.54a4.45,4.45,0,0,0-.22-1.32A4.67,4.67,0,0,0,29.25,24l.8,1.11v1.37m-.57,2.33a.91.91,0,0,1,.07-.14,4.7,4.7,0,0,0,.29-.7,5.74,5.74,0,0,1-.36.84" transform="translate(0 0)"/><path class="cls-18" d="M29.13,29.34l0-.05c.11-.15.22-.32.32-.48-.11.18-.23.36-.35.53" transform="translate(0 0)"/><path class="cls-18" d="M29.16,29.29l0,0a5.65,5.65,0,0,0,.36-.58.91.91,0,0,0-.07.14c-.1.16-.21.33-.32.48" transform="translate(0 0)"/><path class="cls-19" d="M24.21,22.23l1.3-.42,1.31.42a4.5,4.5,0,0,0-1.3-.19h0a4.4,4.4,0,0,0-1.3.19m-1.36.67h0m-.68.6a4.87,4.87,0,0,1,.68-.6,5.27,5.27,0,0,0-.57.49l-.11.11" transform="translate(0 0)"/><path class="cls-18" d="M24.15,22.25l.06,0a4.4,4.4,0,0,1,1.3-.19h0a4.49,4.49,0,0,0-1.36.21M21.81,24a3.94,3.94,0,0,1,.36-.45l.11-.11a3.67,3.67,0,0,0-.44.52l0,0" transform="translate(0 0)"/><path class="cls-18" d="M30,27.14a3.08,3.08,0,0,0,0-.61v-.05a3.65,3.65,0,0,1,0,.66" transform="translate(0 0)"/><path class="cls-18" d="M30.05,26.53a4.57,4.57,0,0,0-.22-1.37,4.45,4.45,0,0,1,.22,1.32v.05" transform="translate(0 0)"/><path class="cls-19" d="M28.84,23.49l-.1-.1a3.57,3.57,0,0,0-.51-.45,4.52,4.52,0,0,1,.61.55" transform="translate(0 0)"/><path class="cls-18" d="M28.74,23.39a3.64,3.64,0,0,0-.56-.48,4.12,4.12,0,0,0-.63-.39,4.29,4.29,0,0,1,.68.42,3.57,3.57,0,0,1,.51.45" transform="translate(0 0)"/><path class="cls-20" d="M27,30.87a4.57,4.57,0,0,0,1.2-.63,4.9,4.9,0,0,0,.92-.9l-.81,1.11L27,30.87m-1.5.26a4.71,4.71,0,0,1-.85-.08l.13,0a4.37,4.37,0,0,0,.72.06h0" transform="translate(0 0)"/><path class="cls-20" d="M27,30.89a4.57,4.57,0,0,0,1.26-.65,4.3,4.3,0,0,1-1.2.63l-.06,0m-2.16.18-.13,0a3.65,3.65,0,0,1-.59-.16h0a4.51,4.51,0,0,0,.68.17" transform="translate(0 0)"/><path class="cls-20" d="M29.84,28a5,5,0,0,0,.16-.69.68.68,0,0,0,0-.14,4,4,0,0,1-.18.83" transform="translate(0 0)"/><path class="cls-20" d="M29.55,28.67a5.11,5.11,0,0,0,.28-.68,4.57,4.57,0,0,0,.17-.71,5,5,0,0,1-.16.69,6.07,6.07,0,0,1-.29.7" transform="translate(0 0)"/><path class="cls-21" d="M29.25,24l0-.05a5.45,5.45,0,0,0-.38-.46,4,4,0,0,1,.41.51" transform="translate(0 0)"/><path class="cls-20" d="M29.83,25.16A4.91,4.91,0,0,0,29.22,24l0,.05a4.67,4.67,0,0,1,.58,1.16" transform="translate(0 0)"/><path class="cls-21" d="M27.4,22.45a3.39,3.39,0,0,0-.53-.2l-.05,0a4.58,4.58,0,0,1,.58.22" transform="translate(0 0)"/><path class="cls-20" d="M27.55,22.52a4.08,4.08,0,0,0-.64-.26h0a3.39,3.39,0,0,1,.53.2l.15.07" transform="translate(0 0)"/><path class="cls-22" d="M21,27.14a3.65,3.65,0,0,1,0-.66v.05c0,.2,0,.41,0,.61m.9,2.2a6.49,6.49,0,0,1-.36-.55,5.29,5.29,0,0,0,.32.5l0,.05" transform="translate(0 0)"/><path class="cls-23" d="M26.87,22.25A4.49,4.49,0,0,0,25.51,22h0a4.51,4.51,0,0,1,1.31.19l.05,0m-4.59,1.14a4.35,4.35,0,0,1,.57-.49h0a4.9,4.9,0,0,1,.62-.38,4.12,4.12,0,0,0-.63.39,4.29,4.29,0,0,0-.56.48m6.94.56,0,0a4.54,4.54,0,0,0-.45-.52l.1.1a5.45,5.45,0,0,1,.38.46M21,26.53v-.05a4.65,4.65,0,0,1,.23-1.34A4.4,4.4,0,0,0,21,26.53m.89,2.76a5.29,5.29,0,0,1-.32-.5l-.06-.11a3.88,3.88,0,0,0,.36.57l0,0" transform="translate(0 0)"/><path class="cls-24" d="M30,27.28a4,4,0,0,0,.05-.7v0a3.08,3.08,0,0,1,0,.61.68.68,0,0,1,0,.14m-9,0c0-.05,0-.09,0-.14s0-.41,0-.61v0a5.36,5.36,0,0,0,.05.7m7.19,3a4.75,4.75,0,0,0,.95-.95l0,.05a4.9,4.9,0,0,1-.92.9m-5.36,0a4.65,4.65,0,0,1-1-.93l0-.05a4.84,4.84,0,0,0,1,1m2.66.86a4.37,4.37,0,0,1-.72-.06,4.37,4.37,0,0,0,.72.06,4,4,0,0,0,.7-.06,4.14,4.14,0,0,1-.7.06" transform="translate(0 0)"/><path class="cls-24" d="M25.51,31.13a4.37,4.37,0,0,1-.72-.06,4.51,4.51,0,0,1-.68-.17h0a4.47,4.47,0,0,1-2.21-1.6l0,0a3.88,3.88,0,0,1-.36-.57,5.28,5.28,0,0,1-.29-.69,4.57,4.57,0,0,1-.17-.71,5.36,5.36,0,0,1-.05-.7v0a4.4,4.4,0,0,1,.23-1.39A4.62,4.62,0,0,1,21.81,24l0,0a3.67,3.67,0,0,1,.44-.52,4.29,4.29,0,0,1,.56-.48,4.12,4.12,0,0,1,.63-.39,4.51,4.51,0,0,1,.64-.26h.05A4.38,4.38,0,0,1,25.51,22a4.49,4.49,0,0,1,1.36.21h0a4.08,4.08,0,0,1,.64.26,4.12,4.12,0,0,1,.63.39,3.64,3.64,0,0,1,.56.48,4.54,4.54,0,0,1,.45.52l0,0a4.91,4.91,0,0,1,.61,1.21,4.57,4.57,0,0,1,.22,1.37v0a4,4,0,0,1-.05.7,4.57,4.57,0,0,1-.17.71,5.11,5.11,0,0,1-.28.68,5.65,5.65,0,0,1-.36.58l0,0a4.75,4.75,0,0,1-.95.95,4.57,4.57,0,0,1-1.26.65h0a3.4,3.4,0,0,1-.7.17,4,4,0,0,1-.7.06" transform="translate(0 0)"/></g></g></g></svg>